<?xml version="1.0" encoding="UTF-8"?>
<svg version="1.1" xmlns="http://www.w3.org/2000/svg" width="373" height="465">
<path d="M0 0 C1.4540625 0.0309375 1.4540625 0.0309375 2.9375 0.0625 C2.9375 0.7225 2.9375 1.3825 2.9375 2.0625 C3.67559906 2.33683868 4.41369812 2.61117737 5.17416382 2.89382935 C7.75555806 3.98555308 9.84278572 5.18635016 12.15087891 6.76123047 C12.95006744 7.30294891 13.74925598 7.84466736 14.57266235 8.40280151 C15.4278244 8.98917389 16.28298645 9.57554626 17.1640625 10.1796875 C18.0663559 10.79208282 18.96864929 11.40447815 19.89828491 12.03543091 C22.78942805 13.99831466 25.67630083 15.96735535 28.5625 17.9375 C40.8159247 26.29153414 53.09972983 34.54186758 65.68896484 42.38330078 C70.16846561 45.1820873 74.55779765 48.11065242 78.9375 51.0625 C84.12268389 47.61710945 89.28062572 44.13211045 94.4375 40.64453125 C96.31374435 39.37686768 98.1900484 38.10929244 100.06640625 36.84179688 C102.99126068 34.86594619 105.91581985 32.88966684 108.83935547 30.91186523 C118.87641268 24.12249227 128.92651128 17.37536806 139.14794922 10.86645508 C143.59587462 7.99005732 147.83569584 4.8589129 152.09765625 1.71484375 C155.21509265 -0.0990154 156.42544434 -0.67144352 159.9375 0.0625 C162.19314238 1.4839462 164.17616211 2.91032811 166.25 4.5625 C172.82644163 9.59041662 179.5929305 14.25054952 186.5 18.8125 C201.80243702 28.94651628 217.04759146 39.16268134 231.93359375 49.90234375 C235.64312137 52.56992343 239.38970026 55.18188844 243.14453125 57.78515625 C244.9375 59.0625 244.9375 59.0625 245.9375 60.0625 C246.51942178 65.39678299 244.7931298 69.16942541 242.4375 73.8125 C241.69487741 75.33248583 240.95404628 76.85334799 240.21484375 78.375 C239.83440918 79.15230469 239.45397461 79.92960937 239.06201172 80.73046875 C237.2971979 84.39036923 235.64262223 88.09648498 234 91.8125 C233.66959717 92.55741699 233.33919434 93.30233398 232.9987793 94.06982422 C230.90044284 98.82201341 228.85788837 103.59598461 226.83422852 108.38037109 C218.64184619 127.70192309 210.2854515 146.95116321 199.375 164.9140625 C198.55674911 166.29347982 197.74438321 167.67640255 196.9375 169.0625 C196.49293457 169.82135498 196.04836914 170.58020996 195.59033203 171.36206055 C191.98068826 177.96827741 190.74708794 184.20317538 189.8125 191.625 C189.48962864 193.93378258 189.1654088 196.24237697 188.83984375 198.55078125 C188.68757324 199.66533691 188.53530273 200.77989258 188.37841797 201.92822266 C185.56755364 221.90932802 180.70330885 241.47970807 175.9375 261.0625 C175.72383789 261.94583008 175.51017578 262.82916016 175.29003906 263.73925781 C174.73905201 266.01468054 174.18323264 268.2888457 173.625 270.5625 C173.31949219 271.8103125 173.01398438 273.058125 172.69921875 274.34375 C171.9375 277.0625 171.9375 277.0625 170.9375 278.0625 C170.793125 279.155625 170.64875 280.24875 170.5 281.375 C170.01211271 284.57337224 169.43855938 286.30954494 167.9375 289.0625 C169.05692993 288.7996521 169.05692993 288.7996521 170.19897461 288.53149414 C210.18878415 279.21445674 210.18878415 279.21445674 226.875 277.5 C228.07008179 277.37226196 228.07008179 277.37226196 229.28930664 277.24194336 C233.15717705 276.91596752 234.61012962 276.84425308 237.9375 279.0625 C237.9375 280.0525 237.9375 281.0425 237.9375 282.0625 C235.75183534 283.92665246 233.584144 285.58862085 231.25 287.25 C229.77001712 288.33091458 228.29089302 289.41300569 226.8125 290.49609375 C226.01972656 291.07343262 225.22695313 291.65077148 224.41015625 292.24560547 C220.14713931 295.37804742 215.9515807 298.59839661 211.75 301.8125 C209.96104335 303.1772221 208.17197959 304.5418038 206.3828125 305.90625 C204.56765057 307.29159098 202.75254661 308.67700792 200.9375 310.0625 C197.33390831 312.81325456 193.72986947 315.56342014 190.125 318.3125 C189.25786377 318.97378906 188.39072754 319.63507813 187.49731445 320.31640625 C181.3543255 324.99589277 175.18875773 329.64424603 168.99682617 334.25878906 C168.39974854 334.70448242 167.8026709 335.15017578 167.1875 335.609375 C166.63191406 336.02380859 166.07632813 336.43824219 165.50390625 336.86523438 C164.01510303 338.00318496 162.56849896 339.19572864 161.125 340.390625 C158.9375 342.0625 158.9375 342.0625 156.9375 342.0625 C156.2775 343.3825 155.6175 344.7025 154.9375 346.0625 C152.52461728 345.70031253 151.27714754 345.47241945 149.69140625 343.55859375 C149.10166016 342.53958984 149.10166016 342.53958984 148.5 341.5 C145.61223367 336.89988981 142.33726787 332.79408178 138.875 328.625 C131.81087599 320.05963583 125.36446036 311.11008704 118.9375 302.0625 C111.9680849 292.29150521 104.89637821 282.61163892 97.625 273.0625 C96.97942139 272.21453857 96.33384277 271.36657715 95.66870117 270.49291992 C91.67969947 265.27826157 87.59930388 260.15527808 83.41723633 255.09375 C81.9375 253.0625 81.9375 253.0625 81.9375 251.0625 C80.6175 250.7325 79.2975 250.4025 77.9375 250.0625 C77.31875 250.8875 76.7 251.7125 76.0625 252.5625 C75.36125 253.3875 74.66 254.2125 73.9375 255.0625 C73.2775 255.0625 72.6175 255.0625 71.9375 255.0625 C71.65841797 255.65168213 71.37933594 256.24086426 71.09179688 256.84790039 C70.0183296 258.90742274 68.86697649 260.64764884 67.46875 262.49609375 C66.98543213 263.13788574 66.50211426 263.77967773 66.00415039 264.44091797 C65.22865845 265.46016357 65.22865845 265.46016357 64.4375 266.5 C63.89923584 267.2130127 63.36097168 267.92602539 62.80639648 268.66064453 C59.5675023 272.94315584 56.29120517 277.19514194 53 281.4375 C45.82336805 290.73371506 38.98125542 300.28787517 32.23828125 309.90234375 C27.51829803 316.61766314 22.58275343 322.98089691 17.265625 329.234375 C14.44264323 332.66363474 11.90229273 336.23233872 9.41015625 339.90625 C7.97614796 342.00591201 6.47754813 344.03975022 4.9375 346.0625 C2.51831055 345.38525391 2.51831055 345.38525391 -0.0625 344.0625 C-0.96557617 341.75927734 -0.96557617 341.75927734 -1.35546875 338.8984375 C-1.5884668 337.33802734 -1.5884668 337.33802734 -1.82617188 335.74609375 C-1.96603516 334.65425781 -2.10589844 333.56242187 -2.25 332.4375 C-2.55309516 330.29906692 -2.85902951 328.16103411 -3.16796875 326.0234375 C-3.31516357 324.98944824 -3.4623584 323.95545898 -3.61401367 322.89013672 C-4.0830408 319.93299343 -4.7304782 317.09676075 -5.5065918 314.20849609 C-6.21087993 311.48970266 -6.80109169 308.7529153 -7.39453125 306.0078125 C-9.77429602 295.03454201 -12.17590945 284.11326566 -15.29907227 273.32495117 C-17.01993675 267.35625011 -18.45816359 261.33987528 -19.80712891 255.27685547 C-20.34583136 251.88517411 -20.34583136 251.88517411 -22.0625 249.0625 C-22.40505603 247.58982572 -22.69662082 246.10519645 -22.96484375 244.6171875 C-23.13306641 243.70453125 -23.30128906 242.791875 -23.47460938 241.8515625 C-23.64798828 240.88992188 -23.82136719 239.92828125 -24 238.9375 C-25.09677838 232.86560146 -26.35953084 226.99795319 -28.0625 221.0625 C-28.43690115 218.75629291 -28.77045885 216.44307664 -29.0625 214.125 C-29.62109697 209.70111146 -30.46174853 205.52832663 -31.58935547 201.21655273 C-32.10006551 198.89147809 -32.36947996 196.61914463 -32.59765625 194.25 C-33.76729851 182.30727661 -36.48811823 173.8374418 -42.98291016 163.78808594 C-44.52725658 161.3196462 -45.79532456 158.74453914 -47.0625 156.125 C-49.06476595 152.02617857 -51.16196487 147.99718055 -53.32910156 143.984375 C-57.10736348 136.97615606 -60.55821037 129.9241439 -63.67504883 122.59741211 C-65.22698501 118.95074882 -66.86099875 115.39186577 -68.6875 111.875 C-70.4986509 108.34061814 -71.98097049 104.7814558 -73.375 101.0625 C-75.43098311 95.58204029 -77.68581446 90.22185173 -80.0625 84.875 C-80.57744019 83.71532715 -80.57744019 83.71532715 -81.1027832 82.53222656 C-82.96411533 78.38368311 -84.92941527 74.33021357 -87.0625 70.3125 C-90.25058851 63.88135593 -90.25058851 63.88135593 -89.0625 60.0625 C-86.38912405 57.26348236 -83.26847934 55.20978044 -80.0625 53.0625 C-79.52641113 52.70172363 -78.99032227 52.34094727 -78.43798828 51.96923828 C-75.99771222 50.32918938 -73.55219218 48.69760928 -71.09692383 47.08007812 C-66.55528101 44.08503092 -62.10865793 40.98187085 -57.6875 37.8125 C-47.60406215 30.60601676 -37.23990624 23.81118162 -26.90087891 16.97949219 C-1.28869354 0.02629987 -1.28869354 0.02629987 0 0 Z M-6.3671875 27.8515625 C-7.25067871 28.45637451 -8.13416992 29.06118652 -9.04443359 29.68432617 C-9.99914551 30.34537354 -10.95385742 31.0064209 -11.9375 31.6875 C-12.92186035 32.36466064 -13.9062207 33.04182129 -14.92041016 33.73950195 C-17.97154343 35.84176845 -21.01743955 37.95144948 -24.0625 40.0625 C-24.96613281 40.68656738 -25.86976562 41.31063477 -26.80078125 41.95361328 C-38.07828284 49.74599491 -49.16228308 57.75032341 -60.0625 66.0625 C-58.56231474 70.16587754 -56.54933953 73.83342528 -54.30859375 77.56640625 C-53.93613525 78.19313736 -53.56367676 78.81986847 -53.17993164 79.46559143 C-51.95695266 81.52093684 -50.7286283 83.5730274 -49.5 85.625 C-48.6385731 87.06939127 -47.77732882 88.51389147 -46.91625977 89.95849609 C-40.80887748 100.19305211 -34.63999078 110.38976766 -28.44067383 120.56884766 C-22.98733498 129.52465411 -17.57835666 138.50645463 -12.1875 147.5 C-11.79819305 148.14946594 -11.40888611 148.79893188 -11.00778198 149.46807861 C-9.26647062 152.37346184 -7.52578161 155.27921597 -5.78564453 158.18530273 C-4.73815918 159.93432723 -3.65972079 161.6659179 -2.52787781 163.36157227 C-0.88911579 166.38207508 -0.38586164 168.75998854 0.10668945 172.15454102 C0.29063766 173.38969955 0.47458588 174.62485809 0.66410828 175.89744568 C0.85587094 177.26621385 1.04724821 178.63503606 1.23828125 180.00390625 C1.44929142 181.4580718 1.66100748 182.91213506 1.87336731 184.36610413 C5.0916531 206.59072853 7.9954569 228.8637678 10.93432617 251.12670898 C11.58775035 256.0740234 12.24931219 261.02019072 12.91625404 265.96570015 C13.16615594 267.8308651 13.41294177 269.69645037 13.65651512 271.56245232 C13.99272221 274.13640243 14.33923124 276.70876406 14.68823242 279.28100586 C14.78539551 280.04483582 14.88255859 280.80866577 14.98266602 281.59564209 C15.48286413 285.7693358 15.48286413 285.7693358 17.9375 289.0625 C23.08139219 283.05451524 28.04691564 277.1187656 32.33203125 270.45703125 C37.90899017 262.13908522 44.38546266 254.45671155 50.90112305 246.86816406 C54.679746 242.43966329 58.14584799 237.81980192 61.59375 233.12890625 C64.70347627 229.06034771 68.01889221 225.1857232 71.39648438 221.33789062 C73.5051925 218.9066384 74.90778238 217.15165287 75.9375 214.0625 C81.14021035 215.33163476 83.12300374 216.99104027 86.125 221.375 C86.90376401 222.47794486 87.68646586 223.57811763 88.47265625 224.67578125 C88.87629395 225.24119629 89.27993164 225.80661133 89.69580078 226.38916016 C91.68024715 229.06344159 93.87432355 231.55543148 96.0625 234.0625 C101.40677917 240.25471532 106.28532687 246.76102947 111.1628418 253.32373047 C120.16580126 265.43206518 129.44712263 277.33215778 138.9375 289.0625 C141.32160498 286.67839502 141.33156572 285.74070912 141.77197266 282.46528625 C141.90645813 281.49661118 142.0409436 280.5279361 142.17950439 279.52990723 C142.31878357 278.46340942 142.45806274 277.39691162 142.6015625 276.2980957 C142.7546991 275.17763351 142.90783569 274.05717133 143.06561279 272.90275574 C143.57228658 269.18226533 144.06719527 265.46030073 144.5625 261.73828125 C144.91269158 259.15704054 145.26377751 256.57592102 145.61572266 253.99491882 C146.54318829 247.18429717 147.46035639 240.3723186 148.37524414 233.55999756 C149.83747017 222.67265381 151.31005488 211.7867281 152.79071045 200.90187645 C153.30601721 197.09862786 153.81464341 193.29452644 154.32275391 189.49031067 C154.63938953 187.15146436 154.95627101 184.81265133 155.2734375 182.47387695 C155.41271667 181.41750031 155.55199585 180.36112366 155.69549561 179.2727356 C156.75360894 171.54040244 158.0426963 165.03279657 162.21875 158.30859375 C162.88712891 157.22151123 163.55550781 156.13442871 164.24414062 155.0144043 C164.97525527 153.84293298 165.7063752 152.67146497 166.4375 151.5 C167.58571998 149.63899837 168.73088761 147.77613874 169.87609863 145.9132843 C170.67288593 144.61782859 171.4706709 143.32298601 172.26940918 142.0287323 C176.72348056 134.80792872 181.08152709 127.53024207 185.4375 120.25 C186.16070002 119.0428231 186.8840048 117.83570895 187.60742188 116.62866211 C187.95738724 116.04465637 188.3073526 115.46065063 188.66792297 114.85894775 C189.36659106 113.69310429 190.06531108 112.52729194 190.76408386 111.36151123 C192.57881621 108.33319365 194.39069201 105.30321702 196.19848633 102.27075195 C199.71865242 96.37386511 203.26619573 90.50441632 206.94921875 84.70703125 C207.56087891 83.73572266 208.17253906 82.76441406 208.80273438 81.76367188 C210.0492203 79.78773117 211.30763239 77.81927723 212.57617188 75.85742188 C213.47239258 74.42172852 213.47239258 74.42172852 214.38671875 72.95703125 C214.92643311 72.10987549 215.46614746 71.26271973 216.0222168 70.38989258 C217.20748748 68.10027353 217.20748748 68.10027353 216.22216797 65.86401367 C214.55575409 63.52717065 212.73315745 62.20420962 210.375 60.5625 C209.38886719 59.86898437 208.40273438 59.17546875 207.38671875 58.4609375 C206.56373291 57.89004395 206.56373291 57.89004395 205.72412109 57.30761719 C203.79176919 55.96093849 201.87372284 54.59543145 199.95703125 53.2265625 C192.50347064 47.91368866 184.98988256 42.71080064 177.35424805 37.66308594 C171.14879779 33.55790332 165.03814423 29.32163442 158.9375 25.0625 C155.63851653 26.61260733 152.67756285 28.48779659 149.6484375 30.51171875 C148.62363281 31.19556641 147.59882813 31.87941406 146.54296875 32.58398438 C145.47691406 33.29876953 144.41085938 34.01355469 143.3125 34.75 C142.26964844 35.44544922 141.22679687 36.14089844 140.15234375 36.85742188 C135.5352914 39.94410294 130.9330876 43.04657747 126.390625 46.2421875 C118.96098015 51.4638045 111.47802333 56.60562014 103.95996094 61.69897461 C102.18669727 62.90529756 100.41816005 64.11859608 98.65429688 65.33862305 C96.08062074 67.11719328 93.49165946 68.87118693 90.8984375 70.62109375 C90.11802094 71.16785263 89.33760437 71.71461151 88.53353882 72.27793884 C83.38557688 75.70528078 80.12995161 76.80276537 73.9375 76.0625 C71.171875 74.59375 71.171875 74.59375 68.6875 72.5625 C63.62118825 68.4965428 58.30460579 64.93700874 52.88519287 61.35522461 C46.41486331 57.06073117 39.98582467 52.70375596 33.54663086 48.36279297 C31.76431216 47.16176783 29.9814334 45.9615734 28.19799805 44.76220703 C25.57728793 42.99967789 22.95802085 41.23503946 20.33984375 39.46875 C19.09284195 38.62751587 19.09284195 38.62751587 17.82064819 37.76928711 C12.38913748 34.08885201 7.06523471 30.30494589 1.83813477 26.33789062 C-1.66599677 23.98649909 -3.18364539 25.66136405 -6.3671875 27.8515625 Z " fill="#FDD0AE" transform="translate(105.0625,72.9375)"/>
<path d="M0 0 C1 3 1 3 -0.58203125 6.44140625 C-1.31956803 7.81830938 -2.0634184 9.19184341 -2.8125 10.5625 C-5.63827255 15.93573567 -7.65755242 20.59039756 -8.51953125 26.64453125 C-9.29873086 30.46450985 -11.03646299 33.79430331 -12.71484375 37.29296875 C-13.89201015 39.77253202 -14.9379752 42.25722948 -15.9375 44.8125 C-20.43203626 56.18313954 -25.45782929 67.15198887 -31.00634766 78.03613281 C-31.9705451 79.94178497 -32.91647552 81.85525871 -33.85546875 83.7734375 C-36.83419114 89.84648179 -39.97304821 95.72650395 -43.49902344 101.49975586 C-48.47262251 109.78450344 -50.91486612 116.95248793 -52.125 126.5625 C-52.44787136 128.87128258 -52.7720912 131.17987697 -53.09765625 133.48828125 C-53.32606201 135.16011475 -53.32606201 135.16011475 -53.55908203 136.86572266 C-56.36994636 156.84682802 -61.23419115 176.41720807 -66 196 C-66.32049316 197.32499512 -66.32049316 197.32499512 -66.64746094 198.67675781 C-67.19844799 200.95218054 -67.75426736 203.2263457 -68.3125 205.5 C-68.61800781 206.7478125 -68.92351562 207.995625 -69.23828125 209.28125 C-70 212 -70 212 -71 213 C-71.144375 214.093125 -71.28875 215.18625 -71.4375 216.3125 C-71.92538729 219.51087224 -72.49894062 221.24704494 -74 224 C-73.26313965 223.82549316 -72.5262793 223.65098633 -71.76708984 223.47119141 C-63.16364392 221.45733799 -54.53250742 219.61464582 -45.87744141 217.83789062 C-43.60652727 217.37120374 -41.33645514 216.900563 -39.06640625 216.4296875 C-37.59900716 216.12736708 -36.13156091 215.82527545 -34.6640625 215.5234375 C-33.99726471 215.38489349 -33.33046692 215.24634949 -32.64346313 215.10360718 C-26.43634566 213.83550325 -20.40636372 212.85918069 -14.0625 212.9375 C-13.10472656 212.94652344 -12.14695312 212.95554687 -11.16015625 212.96484375 C-10.09087891 212.98224609 -10.09087891 212.98224609 -9 213 C-9 213.66 -9 214.32 -9 215 C-19.12509935 220.77477149 -19.12509935 220.77477149 -24.5 222.75 C-30.62789912 225.06520305 -36.30755386 228.25407751 -42.04882812 231.38378906 C-45.63452562 233.3187629 -49.13109621 235.12452198 -52.9765625 236.484375 C-58.73148064 238.52618842 -63.95775558 241.6407945 -69.28515625 244.59179688 C-70.09339844 245.02943359 -70.90164063 245.46707031 -71.734375 245.91796875 C-72.45850586 246.31781982 -73.18263672 246.7176709 -73.92871094 247.12963867 C-76 248 -76 248 -80 248 C-80 248.66 -80 249.32 -80 250 C-80.99 250 -81.98 250 -83 250 C-82.44706815 241.02276423 -81.60465028 232.15292307 -80.35766602 223.24658203 C-80.19492187 222.05769882 -80.03217773 220.86881561 -79.86450195 219.64390564 C-79.42364536 216.43100508 -78.97876095 213.2186976 -78.53167462 210.00665903 C-78.06136209 206.62224714 -77.5956235 203.2372051 -77.12913513 199.8522644 C-76.34644854 194.17839586 -75.55996256 188.5050637 -74.77124023 182.83203125 C-73.86207175 176.29226104 -72.95939557 169.75161879 -72.06005532 163.21049035 C-71.19001889 156.8838579 -70.31501824 150.55792106 -69.43791008 144.23226547 C-69.06666586 141.55408118 -68.69720207 138.87566046 -68.32922554 136.1970253 C-67.81431682 132.45642841 -67.29376541 128.71665861 -66.77172852 124.97705078 C-66.54642708 123.32797478 -66.54642708 123.32797478 -66.3165741 121.64558411 C-64.16177935 106.33373262 -64.16177935 106.33373262 -60.90625 100.9375 C-60.51566406 100.28652344 -60.12507813 99.63554687 -59.72265625 98.96484375 C-59.31917969 98.31644531 -58.91570312 97.66804688 -58.5 97 C-58.09652344 96.32066406 -57.69304687 95.64132813 -57.27734375 94.94140625 C-56.24849113 93.25381631 -55.13117308 91.6207853 -54 90 C-53.34 90 -52.68 90 -52 90 C-51.9175 89.278125 -51.835 88.55625 -51.75 87.8125 C-50.84267268 84.41002254 -49.20622342 82.72533481 -47 80 C-45.96514123 77.68191636 -44.9644586 75.34824702 -44 73 C-42.4375 70.0625 -42.4375 70.0625 -41 68 C-40.34 68 -39.68 68 -39 68 C-38.896875 67.278125 -38.79375 66.55625 -38.6875 65.8125 C-37.93206053 62.72206579 -36.84468685 60.58256159 -35 58 C-34.34 58 -33.68 58 -33 58 C-32.731875 57.278125 -32.46375 56.55625 -32.1875 55.8125 C-31 53 -31 53 -29.5625 50.625 C-27.87088124 47.92907938 -27.87088124 47.92907938 -26.5625 44.5 C-25.04522316 41.10129988 -23.30538637 38.88173296 -21 36 C-20.28400581 34.31215201 -19.56932296 32.62371608 -18.86572266 30.93066406 C-17.40454089 27.67205566 -15.55031105 24.66656569 -13.6875 21.625 C-13.29159668 20.97160645 -12.89569336 20.31821289 -12.48779297 19.64501953 C-9.83587739 15.29406912 -7.0857599 11.02150552 -4.21875 6.80859375 C-2.72374541 4.59004528 -1.34315228 2.31320671 0 0 Z " fill="#DCAF8D" transform="translate(347,138)"/>
<path d="M0 0 C3.09863234 2.869603 5.17759278 5.70301633 7.25 9.375 C7.85287842 10.43364258 8.45575684 11.49228516 9.0769043 12.58300781 C9.71152588 13.71061523 10.34614746 14.83822266 11 16 C12.33664631 18.35078581 13.6781683 20.69877813 15.01953125 23.046875 C15.35451126 23.63458679 15.68949127 24.22229858 16.03462219 24.82781982 C19.18312094 30.34374038 22.41564674 35.80656272 25.6875 41.25 C26.16767578 42.05179688 26.64785156 42.85359375 27.14257812 43.6796875 C29.1187665 46.9611187 31.10890185 50.17689839 33.33203125 53.296875 C35 56 35 56 35 60 C35.66 60 36.32 60 37 60 C38.28100586 61.72485352 38.28100586 61.72485352 39.71484375 64.12890625 C40.23626953 64.99966797 40.75769531 65.87042969 41.29492188 66.76757812 C41.83697266 67.68990234 42.37902344 68.61222656 42.9375 69.5625 C43.47568359 70.45775391 44.01386719 71.35300781 44.56835938 72.27539062 C47.42325063 77.08047886 49.94962485 81.80035582 52 87 C52.5878125 88.4540625 52.5878125 88.4540625 53.1875 89.9375 C53.455625 90.618125 53.72375 91.29875 54 92 C54.66 92 55.32 92 56 92 C56.33 93.65 56.66 95.3 57 97 C57.66 97 58.32 97 59 97 C63.76293612 103.1105099 66.00905106 109.26881986 67.05859375 116.83984375 C67.20993271 117.80719955 67.36127167 118.77455536 67.51719666 119.77122498 C68.03903687 123.17731116 68.52179947 126.58751877 69 130 C69.19302138 131.34896029 69.38649942 132.6978553 69.5803833 134.04669189 C71.01715528 144.06983564 72.38440928 154.10195007 73.7354126 164.13696289 C74.27951718 168.17180445 74.82839987 172.20599564 75.37695312 176.24023438 C76.0137764 180.92444048 76.6496282 185.60876616 77.27993774 190.29385376 C78.15811423 196.81862834 79.04204806 203.34180743 79.97607422 209.85888672 C80.1189537 210.86604233 80.26183319 211.87319794 80.40904236 212.91087341 C80.66239634 214.68886008 80.92042716 216.46619172 81.18482971 218.24256897 C81.93587084 223.54390399 82.10173896 228.64452775 82 234 C81.34 233.67 80.68 233.34 80 233 C79.62599214 230.67284 79.29235267 228.33882138 79 226 C78.67 225.67 78.34 225.34 78 225 C77.95919217 223.00041636 77.95745644 220.99954746 78 219 C77.34 219 76.68 219 76 219 C76 216.69 76 214.38 76 212 C75.34 212 74.68 212 74 212 C70.91797094 201.70571006 67.84374427 191.29295793 66.60546875 180.58984375 C66.04141934 177.2455766 65.02540224 174.46863012 63.78466797 171.33105469 C62.12690868 166.40626137 61.42845379 161.23631699 60.5625 156.125 C60.35077148 154.9093335 60.13904297 153.69366699 59.92089844 152.44116211 C57.91935108 140.82273482 56.12167672 129.17307122 54.40136719 117.51000977 C53.9985545 114.99096034 53.51690508 112.49790736 53 110 C52.34 110 51.68 110 51 110 C50.62875 109.05125 50.2575 108.1025 49.875 107.125 C48.11168696 102.95408647 45.74702331 99.23292685 43.3046875 95.4296875 C41.95673121 92.91942159 41.40930659 90.80524758 41 88 C40.34 88 39.68 88 39 88 C31.99057263 74.32681564 31.99057263 74.32681564 30.3125 69.5 C29.14527974 65.97560355 29.14527974 65.97560355 27.0625 63.125 C23.40921368 57.5897177 21.15111718 51.52299735 20 45 C19.34 45 18.68 45 18 45 C17.68546875 44.01 17.3709375 43.02 17.046875 42 C14.37309438 33.4983185 14.37309438 33.4983185 10.75 25.375 C9.23060944 22.44474678 8.4054196 20.24335682 8 17 C7.34 17 6.68 17 6 17 C4.9932996 14.73192796 3.99448234 12.46092246 3 10.1875 C2.71382812 9.54490234 2.42765625 8.90230469 2.1328125 8.24023438 C0.86288959 5.32243531 0 3.21734286 0 0 Z " fill="#DCAF8D" transform="translate(18,135)"/>
<path d="M0 0 C1.34873892 4.04621677 0.17019544 5.28863444 -1.6875 9.0625 C-3.57211201 12.98769191 -5.41648063 16.88099505 -7 20.9375 C-11.45425107 32.27393407 -16.47931317 43.19413231 -22.00634766 54.03613281 C-22.9705451 55.94178497 -23.91647552 57.85525871 -24.85546875 59.7734375 C-27.83419114 65.84648179 -30.97304821 71.72650395 -34.49902344 77.49975586 C-39.47262251 85.78450344 -41.91486612 92.95248793 -43.125 102.5625 C-43.44787136 104.87128258 -43.7720912 107.17987697 -44.09765625 109.48828125 C-44.24992676 110.60283691 -44.40219727 111.71739258 -44.55908203 112.86572266 C-47.36994636 132.84682802 -52.23419115 152.41720807 -57 172 C-57.32049316 173.32499512 -57.32049316 173.32499512 -57.64746094 174.67675781 C-58.19844799 176.95218054 -58.75426736 179.2263457 -59.3125 181.5 C-59.61800781 182.7478125 -59.92351562 183.995625 -60.23828125 185.28125 C-61 188 -61 188 -62 189 C-62.144375 190.093125 -62.28875 191.18625 -62.4375 192.3125 C-62.92538729 195.51087224 -63.49894062 197.24704494 -65 200 C-64.26313965 199.82549316 -63.5262793 199.65098633 -62.76708984 199.47119141 C-54.16364392 197.45733799 -45.53250742 195.61464582 -36.87744141 193.83789062 C-34.60652727 193.37120374 -32.33645514 192.900563 -30.06640625 192.4296875 C-28.59900716 192.12736708 -27.13156091 191.82527545 -25.6640625 191.5234375 C-24.99726471 191.38489349 -24.33046692 191.24634949 -23.64346313 191.10360718 C-17.43634566 189.83550325 -11.40636372 188.85918069 -5.0625 188.9375 C-4.10472656 188.94652344 -3.14695312 188.95554687 -2.16015625 188.96484375 C-1.09087891 188.98224609 -1.09087891 188.98224609 0 189 C0 189.66 0 190.32 0 191 C-10.12509935 196.77477149 -10.12509935 196.77477149 -15.5 198.75 C-21.62789912 201.06520305 -27.30755386 204.25407751 -33.04882812 207.38378906 C-36.63452562 209.3187629 -40.13109621 211.12452198 -43.9765625 212.484375 C-49.73148064 214.52618842 -54.95775558 217.6407945 -60.28515625 220.59179688 C-61.09339844 221.02943359 -61.90164063 221.46707031 -62.734375 221.91796875 C-63.45850586 222.31781982 -64.18263672 222.7176709 -64.92871094 223.12963867 C-67 224 -67 224 -71 224 C-71 224.66 -71 225.32 -71 226 C-71.99 226 -72.98 226 -74 226 C-73.03644647 211.21867882 -73.03644647 211.21867882 -72 205 C-71.34 205 -70.68 205 -70 205 C-70 203.02 -70 201.04 -70 199 C-69.34 198.67 -68.68 198.34 -68 198 C-68 199.32 -68 200.64 -68 202 C-67.16064763 198.69801946 -66.38838534 195.38281583 -65.625 192.0625 C-65.35945313 190.91523438 -65.09390625 189.76796875 -64.8203125 188.5859375 C-64.28352548 186.23941139 -63.75706079 183.8904941 -63.2421875 181.5390625 C-62.0649845 176.22306158 -60.78941093 171.20316821 -58.7578125 166.15625 C-56.14758623 158.72921444 -54.76640599 150.81734106 -54 143 C-53.34 143 -52.68 143 -52 143 C-51.95101563 142.23816406 -51.90203125 141.47632813 -51.8515625 140.69140625 C-51.77679688 139.65886719 -51.70203125 138.62632812 -51.625 137.5625 C-51.55539062 136.55316406 -51.48578125 135.54382813 -51.4140625 134.50390625 C-51 131 -51 131 -50.1171875 127.20703125 C-49.06947545 122.69787269 -48.40761928 118.15326711 -47.78125 113.5703125 C-47.62443253 112.4274604 -47.62443253 112.4274604 -47.46444702 111.26152039 C-47.02954087 108.07029333 -46.5996857 104.87844893 -46.17724609 101.68554688 C-45.86451563 99.33366196 -45.54226814 96.98323418 -45.21875 94.6328125 C-45.12597778 93.91094757 -45.03320557 93.18908264 -44.93762207 92.44534302 C-44.45182387 88.95658565 -43.99011636 86.98517455 -42 84 C-41.34 84 -40.68 84 -40 84 C-39.87625 83.2575 -39.7525 82.515 -39.625 81.75 C-39.04513299 79.19858515 -38.26291261 77.2732427 -37 75 C-36.34 75 -35.68 75 -35 75 C-34.7525 74.195625 -34.505 73.39125 -34.25 72.5625 C-32.73921353 68.25675857 -30.89811144 64.14635993 -29 60 C-28.34 60 -27.68 60 -27 60 C-26.71898437 59.13117188 -26.43796875 58.26234375 -26.1484375 57.3671875 C-23.64799653 50.03596261 -20.57142211 42.92605889 -17.0234375 36.04296875 C-15.82024722 33.64118053 -14.72313616 31.20157149 -13.625 28.75 C-11.8108349 24.71292272 -9.88409886 20.75610246 -7.875 16.8125 C-6.14601049 13.39885405 -4.55461269 10.03506833 -3.25 6.4375 C-2 3 -2 3 0 0 Z " fill="#DBAF8E" transform="translate(338,162)"/>
<path d="M0 0 C0.66 0.33 1.32 0.66 2 1 C1.34 1.66 0.68 2.32 0 3 C0.21527336 8.2741973 1.8461221 12.27395673 4.16015625 16.984375 C5 19 5 19 5 22 C5.66 22 6.32 22 7 22 C7.31453125 22.76183594 7.6290625 23.52367187 7.953125 24.30859375 C8.38109375 25.34113281 8.8090625 26.37367188 9.25 27.4375 C9.70375 28.53320312 10.1575 29.62890625 10.625 30.7578125 C11.77744269 33.47521999 12.99355089 36.14254564 14.25 38.8125 C15.95333712 42.57632556 16.65036668 45.89180849 17 50 C17.66 50 18.32 50 19 50 C23.8853609 60.67827897 23.8853609 60.67827897 25.5625 64.75 C26.84958993 67.65994244 28.34648324 70.31092962 29.9609375 73.046875 C31.60124284 76.13015571 32.79715369 79.37343864 34.05078125 82.62890625 C35.05202132 85.22473788 35.05202132 85.22473788 36.75 88.5 C38 91 38 91 38 93 C38.66 93 39.32 93 40 93 C40.30292969 93.6290625 40.60585938 94.258125 40.91796875 94.90625 C43.36438308 99.90446265 45.91498102 104.63089563 49.08203125 109.2109375 C50 111 50 111 50 115 C50.66 115 51.32 115 52 115 C54.62894271 122.68602885 55.90508824 130.27265575 56.9375 138.3125 C58.14114657 147.15985657 59.41483424 155.97336452 61.0625 164.75 C61.21259521 165.57540283 61.36269043 166.40080566 61.51733398 167.2512207 C62.38877133 171.76447183 63.64651858 175.84247754 65.33764648 180.11083984 C66.35220344 183.00455224 66.66587906 185.89908773 67 188.9375 C67.73116743 194.64060593 68.99793972 199.63619145 71 205 C72.31728949 209.15986154 73.26497288 212.62794753 73 217 C73.66 217 74.32 217 75 217 C75 219.31 75 221.62 75 224 C75.66 224 76.32 224 77 224 C78.34168352 228.02505056 79.10977339 231.63784316 79.375 235.875 C79.7389126 240.6643497 80.69658735 245.16941304 81.875 249.8125 C84.27174258 259.32740424 85.50054274 268.95191152 86.67456055 278.68261719 C87.02049507 281.14594092 87.49056396 283.56569852 88 286 C91.89561 284.70146333 91.94309577 283.52612153 94 280 C95.16469529 278.37920025 96.35419676 276.77605602 97.5625 275.1875 C98.16191406 274.39730469 98.76132813 273.60710937 99.37890625 272.79296875 C99.91386719 272.20128906 100.44882813 271.60960937 101 271 C101.66 271 102.32 271 103 271 C101.48833877 274.24894354 99.63316522 277.07880348 97.5625 280 C96.96566406 280.845625 96.36882812 281.69125 95.75390625 282.5625 C94.19497424 284.72903358 92.61085167 286.87190238 91 289 C88.58081055 288.32275391 88.58081055 288.32275391 86 287 C85.09692383 284.69677734 85.09692383 284.69677734 84.70703125 281.8359375 C84.4740332 280.27552734 84.4740332 280.27552734 84.23632812 278.68359375 C84.09646484 277.59175781 83.95660156 276.49992187 83.8125 275.375 C83.50940484 273.23656692 83.20347049 271.09853411 82.89453125 268.9609375 C82.74733643 267.92694824 82.6001416 266.89295898 82.44848633 265.82763672 C81.9794592 262.87049343 81.3320218 260.03426075 80.5559082 257.14599609 C79.85162007 254.42720266 79.26140831 251.6904153 78.66796875 248.9453125 C76.28820398 237.97204201 73.88659055 227.05076566 70.76342773 216.26245117 C69.04256325 210.29375011 67.60433641 204.27737528 66.25537109 198.21435547 C65.71666864 194.82267411 65.71666864 194.82267411 64 192 C63.65744397 190.52732572 63.36587918 189.04269645 63.09765625 187.5546875 C62.92943359 186.64203125 62.76121094 185.729375 62.58789062 184.7890625 C62.41451172 183.82742188 62.24113281 182.86578125 62.0625 181.875 C60.96572162 175.80310146 59.70296916 169.93545319 58 164 C57.62559885 161.69379291 57.29204115 159.38057664 57 157.0625 C56.44140303 152.63861146 55.60075147 148.46582663 54.47314453 144.15405273 C53.96243449 141.82897809 53.69302004 139.55664463 53.46484375 137.1875 C52.29520149 125.24477661 49.57438177 116.7749418 43.07958984 106.72558594 C41.53524342 104.2571462 40.26717544 101.68203914 39 99.0625 C36.99773405 94.96367857 34.90053513 90.93468055 32.73339844 86.921875 C28.95513652 79.91365606 25.50428963 72.8616439 22.38745117 65.53491211 C20.83551499 61.88824882 19.20150125 58.32936577 17.375 54.8125 C15.5638491 51.27811814 14.08152951 47.7189558 12.6875 44 C10.63151689 38.51954029 8.37668554 33.15935173 6 27.8125 C5.65670654 27.03938477 5.31341309 26.26626953 4.9597168 25.46972656 C3.09838467 21.32118311 1.13308473 17.26771357 -1 13.25 C-2.81037841 9.69652075 -3.79050316 7.05132871 -3 3 C-1.5 1.125 -1.5 1.125 0 0 Z " fill="#F5EDE7" transform="translate(19,130)"/>
<path d="M0 0 C3.23486594 0.70177877 4.89181195 1.36476494 7 4 C7 4.66 7 5.32 7 6 C7.66 6 8.32 6 9 6 C9 6.66 9 7.32 9 8 C9.66 8 10.32 8 11 8 C11.96299775 9.38029678 12.91587706 10.76871966 13.81738281 12.18994141 C15.97763298 15.49631935 18.45733781 18.56720359 20.875 21.6875 C27.53013972 30.33279255 34.01555483 39.09582074 40.45654297 47.90136719 C41.84563605 49.7901119 43.24840536 51.66722965 44.66015625 53.5390625 C45.39105469 54.51617187 46.12195313 55.49328125 46.875 56.5 C47.49117188 57.3146875 48.10734375 58.129375 48.7421875 58.96875 C50 61 50 61 50 64 C50.5775 64.20625 51.155 64.4125 51.75 64.625 C54.81938843 66.50073738 56.09314738 68.98594263 58 72 C58.99301142 73.00694008 59.9936154 74.00642563 61 75 C63.27685438 77.77997402 65.44249751 80.64559172 67.625 83.5 C68.5221875 84.65822266 68.5221875 84.65822266 69.4375 85.83984375 C70.00726563 86.58363281 70.57703125 87.32742188 71.1640625 88.09375 C71.68436035 88.77115234 72.2046582 89.44855469 72.74072266 90.14648438 C74 92 74 92 75 95 C76.485 95.495 76.485 95.495 78 96 C78.35989014 95.12057739 78.35989014 95.12057739 78.72705078 94.22338867 C80.2586214 91.54828058 81.90065445 90.26753611 84.3671875 88.42578125 C85.24673096 87.76288086 86.12627441 87.09998047 87.0324707 86.41699219 C87.97050537 85.72250977 88.90854004 85.02802734 89.875 84.3125 C90.83301514 83.59352539 91.79103027 82.87455078 92.77807617 82.13378906 C95.51375002 80.08243922 98.25633958 78.04064714 101 76 C102.16620821 75.12482095 103.33173993 74.2487384 104.49609375 73.37109375 C107.32545006 71.24024705 110.16184252 69.11910686 113 67 C122.95449017 59.56401292 132.86576921 52.07448316 142.73022461 44.51928711 C146.46506858 41.66453155 150.20007213 38.83828334 154.05859375 36.15234375 C157.0290916 34.32325597 157.0290916 34.32325597 158 32 C157.01 31.67 156.02 31.34 155 31 C155.99 30.67 156.98 30.34 158 30 C158.99 30.66 159.98 31.32 161 32 C161 32.99 161 33.98 161 35 C158.81433534 36.86415246 156.646644 38.52612085 154.3125 40.1875 C152.83251712 41.26841458 151.35339302 42.35050569 149.875 43.43359375 C149.08222656 44.01093262 148.28945313 44.58827148 147.47265625 45.18310547 C143.20963931 48.31554742 139.0140807 51.53589661 134.8125 54.75 C133.02354335 56.1147221 131.23447959 57.4793038 129.4453125 58.84375 C127.63015057 60.22909098 125.81504661 61.61450792 124 63 C120.39640831 65.75075456 116.79236947 68.50092014 113.1875 71.25 C112.32036377 71.91128906 111.45322754 72.57257813 110.55981445 73.25390625 C104.4168255 77.93339277 98.25125773 82.58174603 92.05932617 87.19628906 C91.16370972 87.8648291 91.16370972 87.8648291 90.25 88.546875 C89.69441406 88.96130859 89.13882813 89.37574219 88.56640625 89.80273438 C87.07760303 90.94068496 85.63099896 92.13322864 84.1875 93.328125 C82 95 82 95 80 95 C79.01 96.98 79.01 96.98 78 99 C75.58711728 98.63781253 74.33964754 98.40991945 72.75390625 96.49609375 C72.36074219 95.81675781 71.96757812 95.13742187 71.5625 94.4375 C68.67473367 89.83738981 65.39976787 85.73158178 61.9375 81.5625 C54.87337599 72.99713583 48.42696036 64.04758704 42 55 C35.0305849 45.22900521 27.95887821 35.54913892 20.6875 26 C20.04192139 25.15203857 19.39634277 24.30407715 18.73120117 23.43041992 C14.74219947 18.21576157 10.66180388 13.09277808 6.47973633 8.03125 C5 6 5 6 5 4 C3.68 3.67 2.36 3.34 1 3 C0.38125 3.825 -0.2375 4.65 -0.875 5.5 C-1.926875 6.7375 -1.926875 6.7375 -3 8 C-3.66 8 -4.32 8 -5 8 C-5.27908203 8.58918213 -5.55816406 9.17836426 -5.84570312 9.78540039 C-6.9191704 11.84492274 -8.07052351 13.58514884 -9.46875 15.43359375 C-9.9527124 16.07627197 -10.4366748 16.7189502 -10.93530273 17.38110352 C-11.70982788 18.39901978 -11.70982788 18.39901978 -12.5 19.4375 C-13.03246338 20.14253662 -13.56492676 20.84757324 -14.11352539 21.57397461 C-18.32791684 27.14444796 -22.59349326 32.6750903 -26.86328125 38.203125 C-29.32002886 41.41890433 -31.68470961 44.68141711 -34 48 C-34.495 46.515 -34.495 46.515 -35 45 C-34.05053711 43.30859375 -34.05053711 43.30859375 -32.52734375 41.4375 C-31.964104 40.73222168 -31.40086426 40.02694336 -30.82055664 39.30029297 C-30.19914795 38.54119629 -29.57773926 37.78209961 -28.9375 37 C-27.64090395 35.37946185 -26.34670711 33.7570017 -25.0546875 32.1328125 C-24.38405273 31.29137695 -23.71341797 30.44994141 -23.02246094 29.58300781 C-19.17609021 24.67057393 -15.53213543 19.60778677 -11.88452148 14.546875 C-8.17827719 9.450581 -4.22676994 4.67348882 0 0 Z " fill="#FAF1EA" transform="translate(182,320)"/>
<path d="M0 0 C5.75815924 1.43953981 9.43804088 4.40915099 14 8 C16.16359305 9.62933973 18.32979981 11.25453701 20.5 12.875 C22.33333333 14.25 24.16666667 15.625 26 17 C25.41798398 21.33228847 23.85511452 24.27756357 21.5703125 27.98046875 C21.22379135 28.54670959 20.8772702 29.11295044 20.52024841 29.6963501 C19.39531829 31.53102643 18.26017822 33.35915062 17.125 35.1875 C16.34942565 36.44948848 15.5746082 37.71194242 14.80053711 38.97485352 C12.54226636 42.65522521 10.27226327 46.32825635 8 50 C6.32137151 52.71596324 4.64348627 55.43234447 2.97021484 58.15161133 C2.05939929 59.63062035 1.14461656 61.10719674 0.22509766 62.58081055 C-1.86350205 65.96340675 -3.67601132 69.24508129 -5 73 C-5.66 73 -6.32 73 -7 73 C-7.26530518 73.71172363 -7.53061035 74.42344727 -7.80395508 75.15673828 C-9.04443544 78.10563282 -10.50497468 80.74132378 -12.13671875 83.4921875 C-12.75853027 84.54374023 -13.3803418 85.59529297 -14.02099609 86.67871094 C-14.67406738 87.77473633 -15.32713867 88.87076172 -16 90 C-16.64146973 91.08313477 -17.28293945 92.16626953 -17.94384766 93.28222656 C-19.89286413 96.56750239 -21.85148018 99.84687732 -23.8125 103.125 C-24.47958984 104.24648437 -25.14667969 105.36796875 -25.83398438 106.5234375 C-26.47271484 107.59078125 -27.11144531 108.658125 -27.76953125 109.7578125 C-28.34292236 110.7183252 -28.91631348 111.67883789 -29.50708008 112.66845703 C-31 115 -31 115 -33 117 C-35.02564934 122.6629467 -35.46808997 128.15507831 -35.875 134.125 C-36.95094045 148.1714839 -38.96526887 162.06638634 -41 176 C-41.66 176 -42.32 176 -43 176 C-42.97099609 176.86310791 -42.94199219 177.72621582 -42.91210938 178.61547852 C-42.71553066 189.25810957 -43.92341635 199.42729502 -45.5 209.9375 C-45.74185463 211.6033752 -45.98274542 213.26939063 -46.22265625 214.93554688 C-46.80404894 218.95872811 -47.39829942 222.97980801 -48 227 C-48.66 227 -49.32 227 -50 227 C-50 229.64 -50 232.28 -50 235 C-50.66 235.33 -51.32 235.66 -52 236 C-50.64160915 222.2306754 -48.92811064 208.5328674 -47.03125 194.828125 C-46.74731795 192.76456302 -46.4635069 190.7009844 -46.17980957 188.63739014 C-45.59023807 184.35464645 -44.99829946 180.07223805 -44.40478516 175.79003906 C-43.64609523 170.31369773 -42.8949066 164.83635569 -42.14560699 159.35872269 C-41.56402969 155.11512877 -40.97780225 150.8721869 -40.39024353 146.62941742 C-40.1111645 144.60909759 -39.83368622 142.58855593 -39.55787659 140.56778717 C-39.17297759 137.75185418 -38.78163144 134.93688821 -38.38867188 132.12207031 C-38.27744492 131.29811768 -38.16621796 130.47416504 -38.05162048 129.62524414 C-37.04522835 122.50317005 -35.56530806 116.43974891 -31.71875 110.24609375 C-31.05037109 109.15901123 -30.38199219 108.07192871 -29.69335938 106.9519043 C-28.96224473 105.78043298 -28.2311248 104.60896497 -27.5 103.4375 C-26.35178002 101.57649837 -25.20661239 99.71363874 -24.06140137 97.8507843 C-23.26461407 96.55532859 -22.4668291 95.26048601 -21.66809082 93.9662323 C-17.21401944 86.74542872 -12.85597291 79.46774207 -8.5 72.1875 C-7.77679998 70.9803231 -7.0534952 69.77320895 -6.33007812 68.56616211 C-5.98011276 67.98215637 -5.6301474 67.39815063 -5.26957703 66.79644775 C-4.57090894 65.63060429 -3.87218892 64.46479194 -3.17341614 63.29901123 C-1.35868379 60.27069365 0.45319201 57.24071702 2.26098633 54.20825195 C5.78115242 48.31136511 9.32869573 42.44191632 13.01171875 36.64453125 C13.62337891 35.67322266 14.23503906 34.70191406 14.86523438 33.70117188 C16.1117203 31.72523117 17.37013239 29.75677723 18.63867188 27.79492188 C19.23615234 26.83779297 19.83363281 25.88066406 20.44921875 24.89453125 C20.98893311 24.04737549 21.52864746 23.20021973 22.0847168 22.32739258 C23.27010088 20.0370881 23.27010088 20.0370881 22.28417969 17.79663086 C20.65285141 15.51432196 18.90454777 14.29387789 16.5625 12.75 C15.23798828 11.85667969 15.23798828 11.85667969 13.88671875 10.9453125 C12.93410156 10.30335938 11.98148437 9.66140625 11 9 C8.95121858 7.55167905 6.90935047 6.09352207 4.875 4.625 C3.47894531 3.62339844 3.47894531 3.62339844 2.0546875 2.6015625 C1.37664062 2.07304688 0.69859375 1.54453125 0 1 C0 0.67 0 0.34 0 0 Z " fill="#F8F2EC" transform="translate(298,121)"/>
<path d="M0 0 C2.74234488 1.08488369 4.87555514 2.6086133 7.2578125 4.34375 C10.57750704 6.78857343 10.57750704 6.78857343 14.1328125 8.84375 C14.1328125 9.50375 14.1328125 10.16375 14.1328125 10.84375 C14.8546875 11.111875 15.5765625 11.38 16.3203125 11.65625 C19.13047633 12.84276362 21.61697807 14.11860639 24.1328125 15.84375 C24.1328125 16.50375 24.1328125 17.16375 24.1328125 17.84375 C24.8546875 18.111875 25.5765625 18.38 26.3203125 18.65625 C29.13047633 19.84276362 31.61697807 21.11860639 34.1328125 22.84375 C34.1328125 23.50375 34.1328125 24.16375 34.1328125 24.84375 C29.39629613 23.24973007 25.67701534 20.63291901 21.6328125 17.78125 C20.93736328 17.2968042 20.24191406 16.8123584 19.52539062 16.31323242 C18.09500059 15.31655568 16.6659653 14.31793188 15.23828125 13.31738281 C12.62234604 11.48647083 9.99628818 9.6704818 7.36914062 7.85571289 C4.95498772 6.18800575 2.543929 4.51584278 0.1328125 2.84375 C-3.16617097 4.39385733 -6.12712465 6.26904659 -9.15625 8.29296875 C-10.18105469 8.97681641 -11.20585937 9.66066406 -12.26171875 10.36523438 C-13.32777344 11.08001953 -14.39382812 11.79480469 -15.4921875 12.53125 C-16.53503906 13.22669922 -17.57789063 13.92214844 -18.65234375 14.63867188 C-23.2693961 17.72535294 -27.8715999 20.82782747 -32.4140625 24.0234375 C-39.84370735 29.2450545 -47.32666417 34.38687014 -54.84472656 39.48022461 C-56.61799023 40.68654756 -58.38652745 41.89984608 -60.15039062 43.11987305 C-62.72406676 44.89844328 -65.31302804 46.65243693 -67.90625 48.40234375 C-68.68666656 48.94910263 -69.46708313 49.49586151 -70.27114868 50.05918884 C-75.41911062 53.48653078 -78.67473589 54.58401537 -84.8671875 53.84375 C-87.6328125 52.375 -87.6328125 52.375 -90.1171875 50.34375 C-95.18349925 46.2777928 -100.50008171 42.71825874 -105.91949463 39.13647461 C-112.38982419 34.84198117 -118.81886283 30.48500596 -125.25805664 26.14404297 C-127.04037534 24.94301783 -128.8232541 23.7428234 -130.60668945 22.54345703 C-133.22739826 20.78092877 -135.84620499 19.01560181 -138.46484375 17.25 C-139.71510849 16.41094116 -139.71510849 16.41094116 -140.9906311 15.55493164 C-146.41186079 11.89682793 -151.61957903 8.07977088 -156.67358398 3.92382812 C-158.85616993 2.55609351 -158.85616993 2.55609351 -161.36230469 3.46435547 C-163.84619976 4.83219242 -166.18193262 6.26622621 -168.51171875 7.8828125 C-169.35283203 8.46289062 -170.19394531 9.04296875 -171.06054688 9.640625 C-171.92486328 10.24390625 -172.78917969 10.8471875 -173.6796875 11.46875 C-174.56333984 12.07976562 -175.44699219 12.69078125 -176.35742188 13.3203125 C-178.53040911 14.82378475 -180.70016626 16.33169734 -182.8671875 17.84375 C-183.5271875 17.51375 -184.1871875 17.18375 -184.8671875 16.84375 C-181.4217888 14.23306129 -177.96595505 11.63727679 -174.49658203 9.05859375 C-172.99892865 7.94197355 -171.50884909 6.81521392 -170.01953125 5.6875 C-169.16488281 5.0584375 -168.31023437 4.429375 -167.4296875 3.78125 C-166.66785156 3.21277344 -165.90601563 2.64429687 -165.12109375 2.05859375 C-162.40486566 0.59456093 -160.92288452 0.58706165 -157.8671875 0.84375 C-155.8684845 1.7880249 -155.8684845 1.7880249 -153.91333008 3.13183594 C-152.79979912 3.88457794 -152.79979912 3.88457794 -151.66377258 4.65252686 C-150.87109482 5.20547424 -150.07841705 5.75842163 -149.26171875 6.328125 C-148.00460335 7.18437469 -148.00460335 7.18437469 -146.72209167 8.05792236 C-144.03373078 9.89242677 -141.35658689 11.74257167 -138.6796875 13.59375 C-136.92847677 14.79405261 -135.17653012 15.99328226 -133.42382812 17.19140625 C-130.80987136 18.97877352 -128.19677849 20.76730226 -125.58714294 22.56097412 C-119.09166922 27.02366411 -112.55190847 31.41540447 -105.97200012 35.75262451 C-100.24969616 39.53868125 -94.6711034 43.50752381 -89.1577301 47.5914917 C-86.29608556 49.67696815 -84.06980295 50.79436702 -80.59765625 51.640625 C-75.67692091 50.5894941 -72.75461366 48.18073386 -68.81591797 45.125 C-65.93685322 42.89764605 -62.99674932 40.85669966 -59.96484375 38.84375 C-58.97162109 38.18375 -57.97839844 37.52375 -56.95507812 36.84375 C-55.95669922 36.18375 -54.95832031 35.52375 -53.9296875 34.84375 C-52.93517578 34.18375 -51.94066406 33.52375 -50.91601562 32.84375 C-48.90417261 31.50860596 -46.89188277 30.17413498 -44.87915039 28.84033203 C-35.47970537 22.60959025 -26.12387067 16.31894056 -16.8046875 9.96875 C-14.60561908 8.47113324 -12.40632861 6.97384308 -10.20703125 5.4765625 C-9.25175537 4.82574707 -8.29647949 4.17493164 -7.31225586 3.50439453 C-1.91640167 -0.16036834 -1.91640167 -0.16036834 0 0 Z " fill="#F9F4F0" transform="translate(263.8671875,96.15625)"/>
<path d="M0 0 C1.34873892 4.04621677 0.17019544 5.28863444 -1.6875 9.0625 C-3.57211201 12.98769191 -5.41648063 16.88099505 -7 20.9375 C-11.45425107 32.27393407 -16.47931317 43.19413231 -22.00634766 54.03613281 C-22.9705451 55.94178497 -23.91647552 57.85525871 -24.85546875 59.7734375 C-27.83419114 65.84648179 -30.97304821 71.72650395 -34.49902344 77.49975586 C-39.47262251 85.78450344 -41.91486612 92.95248793 -43.125 102.5625 C-43.44787136 104.87128258 -43.7720912 107.17987697 -44.09765625 109.48828125 C-44.24992676 110.60283691 -44.40219727 111.71739258 -44.55908203 112.86572266 C-47.36994636 132.84682802 -52.23419115 152.41720807 -57 172 C-57.21366211 172.88333008 -57.42732422 173.76666016 -57.64746094 174.67675781 C-58.19844799 176.95218054 -58.75426736 179.2263457 -59.3125 181.5 C-59.61800781 182.7478125 -59.92351562 183.995625 -60.23828125 185.28125 C-61 188 -61 188 -62 189 C-62.144375 190.093125 -62.28875 191.18625 -62.4375 192.3125 C-62.92538729 195.51087224 -63.49894062 197.24704494 -65 200 C-64.09636719 199.7834375 -63.19273437 199.566875 -62.26171875 199.34375 C-60.49248047 198.92609375 -60.49248047 198.92609375 -58.6875 198.5 C-56.92986328 198.08234375 -56.92986328 198.08234375 -55.13671875 197.65625 C-52 197 -52 197 -49 197 C-49 197.66 -49 198.32 -49 199 C-55.14778871 200.6277833 -60.64012196 201.20190089 -67 201 C-66.14035185 193.89020416 -65.28083443 187.08047434 -62.7890625 180.34765625 C-61.43467951 176.31803161 -60.61292383 172.16075257 -59.6875 168.015625 C-58.64867859 163.45897654 -57.31763229 159.02763389 -55.9375 154.5625 C-54.91506106 150.67723202 -54.42008962 146.99085138 -54 143 C-53.34 143 -52.68 143 -52 143 C-51.95101563 142.23816406 -51.90203125 141.47632813 -51.8515625 140.69140625 C-51.77679688 139.65886719 -51.70203125 138.62632812 -51.625 137.5625 C-51.55539062 136.55316406 -51.48578125 135.54382813 -51.4140625 134.50390625 C-51 131 -51 131 -50.1171875 127.20703125 C-49.06947545 122.69787269 -48.40761928 118.15326711 -47.78125 113.5703125 C-47.62443253 112.4274604 -47.62443253 112.4274604 -47.46444702 111.26152039 C-47.02954087 108.07029333 -46.5996857 104.87844893 -46.17724609 101.68554688 C-45.86451563 99.33366196 -45.54226814 96.98323418 -45.21875 94.6328125 C-45.12597778 93.91094757 -45.03320557 93.18908264 -44.93762207 92.44534302 C-44.45182387 88.95658565 -43.99011636 86.98517455 -42 84 C-41.34 84 -40.68 84 -40 84 C-39.814375 82.88625 -39.814375 82.88625 -39.625 81.75 C-39.04513299 79.19858515 -38.26291261 77.2732427 -37 75 C-36.34 75 -35.68 75 -35 75 C-34.7525 74.195625 -34.505 73.39125 -34.25 72.5625 C-32.73921353 68.25675857 -30.89811144 64.14635993 -29 60 C-28.34 60 -27.68 60 -27 60 C-26.71898437 59.13117188 -26.43796875 58.26234375 -26.1484375 57.3671875 C-23.64799653 50.03596261 -20.57142211 42.92605889 -17.0234375 36.04296875 C-15.82024722 33.64118053 -14.72313616 31.20157149 -13.625 28.75 C-11.8108349 24.71292272 -9.88409886 20.75610246 -7.875 16.8125 C-6.14601049 13.39885405 -4.55461269 10.03506833 -3.25 6.4375 C-2 3 -2 3 0 0 Z " fill="#F4E9E2" transform="translate(338,162)"/>
<path d="M0 0 C2.3984375 -0.4453125 2.3984375 -0.4453125 5 0 C6.8515625 1.6953125 6.8515625 1.6953125 8.625 4.125 C9.31078125 5.03765625 9.9965625 5.9503125 10.703125 6.890625 C11.46109375 7.91671875 12.2190625 8.9428125 13 10 C14.7761931 12.30388293 16.57538748 14.58938829 18.375 16.875 C19.07508179 17.77049561 19.07508179 17.77049561 19.78930664 18.68408203 C22.80278883 22.52734863 25.90098671 26.27765311 29.0625 30 C34.44232993 36.39016717 39.23552086 43.14725979 44 50 C43.01 50 42.02 50 41 50 C39.78125 48.7421875 39.78125 48.7421875 38.5 46.875 C35.70622722 42.95681991 32.79656484 39.14931745 29.8125 35.375 C28.85414986 34.15756531 27.89581682 32.94011717 26.9375 31.72265625 C25.00328449 29.26952055 23.06518143 26.8195126 21.125 24.37109375 C15.57978699 17.36117965 10.18658256 10.28202135 5 3 C1.81691913 3.30394001 0.32639165 3.68317061 -2 5.94140625 C-2.66 6.80636719 -3.32 7.67132813 -4 8.5625 C-4.77730469 9.56023437 -5.55460937 10.55796875 -6.35546875 11.5859375 C-6.77747559 12.13475586 -7.19948242 12.68357422 -7.63427734 13.24902344 C-9.59708038 15.76550956 -11.63294158 18.21968748 -13.6628418 20.68212891 C-19.69755308 28.01809435 -25.46805996 35.52176981 -31.12890625 43.1484375 C-34.70041373 47.95814843 -38.3682257 52.69170855 -42.0390625 57.42578125 C-43.42031103 59.23901388 -44.7356169 61.10342534 -46 63 C-46.66 63 -47.32 63 -48 63 C-46.39773152 57.9045872 -43.3011358 54.15072429 -40.0625 50 C-39.19286621 48.87331909 -39.19286621 48.87331909 -38.30566406 47.72387695 C-34.29717015 42.56642025 -30.14844365 37.55095956 -25.88500977 32.60351562 C-22.14750566 28.24479892 -18.74260258 23.68751273 -15.33984375 19.06640625 C-12.24530193 15.01095495 -8.95996577 11.13742285 -5.62890625 7.27539062 C-3.5940159 4.91219675 -1.73322516 2.59983775 0 0 Z " fill="#F9F4F0" transform="translate(181,287)"/>
<path d="M0 0 C0.33 0 0.66 0 1 0 C0.42719444 9.87826616 -0.65116817 19.58045687 -2.0625 29.375 C-2.25108776 30.70827163 -2.43924058 32.04160486 -2.62695312 33.375 C-3.08039329 36.58396115 -3.53812675 39.79224376 -4 43 C-4.66 43 -5.32 43 -6 43 C-5.97099609 43.86310791 -5.94199219 44.72621582 -5.91210938 45.61547852 C-5.71553066 56.25810957 -6.92341635 66.42729502 -8.5 76.9375 C-8.74185463 78.6033752 -8.98274542 80.26939063 -9.22265625 81.93554688 C-9.80404894 85.95872811 -10.39829942 89.97980801 -11 94 C-11.66 94 -12.32 94 -13 94 C-13 96.64 -13 99.28 -13 102 C-13.99 102.495 -13.99 102.495 -15 103 C-13.72100972 90.22616859 -12.20892382 77.50398349 -10.46875 64.78515625 C-10.22972885 63.02828109 -9.9907569 61.27139923 -9.75183105 59.51451111 C-9.25647356 55.87827161 -8.7586237 52.2423832 -8.25927734 48.60668945 C-7.62030126 43.95079277 -6.99075024 39.29367107 -6.36330414 34.63620853 C-5.87568655 31.02821413 -5.38168516 27.42111506 -4.88587952 23.81423759 C-4.65072521 22.09576384 -4.41790102 20.37696953 -4.18748474 18.65785408 C-3.86673466 16.26970364 -3.53704034 13.88295193 -3.20507812 11.49633789 C-3.0662899 10.4405957 -3.0662899 10.4405957 -2.92469788 9.36352539 C-2.43257649 5.89593722 -1.82126079 3.01641059 0 0 Z " fill="#F5E5D9" transform="translate(261,254)"/>
<path d="M0 0 C0.33 0 0.66 0 1 0 C1.45457561 7.34055436 0.65237305 14.3814964 -0.4375 21.625 C-0.57196533 22.52637695 -0.70643066 23.42775391 -0.8449707 24.35644531 C-1.86587495 30.86587495 -1.86587495 30.86587495 -3 32 C-3.30706991 33.68128374 -3.56888508 35.37085621 -3.8125 37.0625 C-5.44741915 47.27166182 -8.16203471 57.21229871 -11.0625 67.125 C-12.79337658 73.04391912 -14.1119233 78.98718213 -15.2890625 85.0390625 C-15.9173327 87.65570434 -16.67383841 89.67638354 -18 92 C-17.09636719 91.7834375 -16.19273437 91.566875 -15.26171875 91.34375 C-14.08222656 91.0653125 -12.90273438 90.786875 -11.6875 90.5 C-10.51574219 90.2215625 -9.34398437 89.943125 -8.13671875 89.65625 C-5 89 -5 89 -2 89 C-2 89.66 -2 90.32 -2 91 C-8.14778871 92.6277833 -13.64012196 93.20190089 -20 93 C-19.14035185 85.89020416 -18.28083443 79.08047434 -15.7890625 72.34765625 C-14.43467951 68.31803161 -13.61292383 64.16075257 -12.6875 60.015625 C-11.64867859 55.45897654 -10.31763229 51.02763389 -8.9375 46.5625 C-7.91506106 42.67723202 -7.42008962 38.99085138 -7 35 C-6.34 35 -5.68 35 -5 35 C-4.95101563 34.23816406 -4.90203125 33.47632813 -4.8515625 32.69140625 C-4.45083091 27.15716474 -3.86693644 21.89718132 -2.54296875 16.51171875 C-1.36630649 11.06859766 -0.737671 5.51683736 0 0 Z " fill="#F0E4DC" transform="translate(291,270)"/>
<path d="M0 0 C0.66 0.33 1.32 0.66 2 1 C-8.95499679 9.06274838 -19.96320981 17.04962447 -31 25 C-29.43644173 29.32456085 -27.24929744 33.17215759 -24.89453125 37.1015625 C-24.49223801 37.77867279 -24.08994476 38.45578308 -23.67546082 39.15341187 C-22.82399143 40.58489239 -21.97078921 42.01534345 -21.1159668 43.44482422 C-19.83045618 45.59496653 -18.55050403 47.74833537 -17.27148438 49.90234375 C-16.43799125 51.30237591 -15.6040124 52.70211902 -14.76953125 54.1015625 C-14.16058517 55.12289276 -14.16058517 55.12289276 -13.53933716 56.16485596 C-10.52314553 61.19481182 -7.36646953 66.10968441 -4.08862305 70.97412109 C-3.72937744 71.64266113 -3.37013184 72.31120117 -3 73 C-3.33 73.66 -3.66 74.32 -4 75 C-7.27820232 71.42377929 -9.78769887 67.78805867 -12.19921875 63.57421875 C-15.977388 57.02605358 -19.85304412 50.54050581 -23.75 44.0625 C-24.40871094 42.96615234 -25.06742188 41.86980469 -25.74609375 40.74023438 C-26.96156756 38.71732106 -28.17734661 36.69459109 -29.39355469 34.67211914 C-29.92368164 33.79031982 -30.45380859 32.90852051 -31 32 C-31.58426758 31.1433374 -32.16853516 30.2866748 -32.77050781 29.40405273 C-34 27 -34 27 -33.89746094 24.85620117 C-32.79851592 22.58327435 -31.72352527 21.71725022 -29.640625 20.30078125 C-28.94275879 19.81786621 -28.24489258 19.33495117 -27.52587891 18.83740234 C-26.77483887 18.33418457 -26.02379883 17.8309668 -25.25 17.3125 C-24.4873584 16.78865723 -23.7247168 16.26481445 -22.93896484 15.72509766 C-21.38071374 14.65577347 -19.81933984 13.59098572 -18.25488281 12.53076172 C-15.59026919 10.72184797 -12.94634443 8.8844945 -10.30371094 7.04370117 C-6.88849565 4.66606365 -3.46245801 2.30830534 0 0 Z " fill="#F6E9DF" transform="translate(77,114)"/>
<path d="M0 0 C1.5 1.125 1.5 1.125 3 3 C3.1875 6.1875 3.1875 6.1875 3 9 C3.66 9 4.32 9 5 9 C8.68476393 24.59364921 11.83363311 40.04637237 13.73291016 55.95996094 C14.04361488 58.33313158 14.47625466 60.66476847 15 63 C18.89561 61.70146333 18.94309577 60.52612153 21 57 C22.16469529 55.37920025 23.35419676 53.77605602 24.5625 52.1875 C25.16191406 51.39730469 25.76132813 50.60710937 26.37890625 49.79296875 C26.91386719 49.20128906 27.44882813 48.60960937 28 48 C28.66 48 29.32 48 30 48 C28.48833877 51.24894354 26.63316522 54.07880348 24.5625 57 C23.66724609 58.2684375 23.66724609 58.2684375 22.75390625 59.5625 C21.19497424 61.72903358 19.61085167 63.87190238 18 66 C15.58081055 65.32275391 15.58081055 65.32275391 13 64 C12.09692383 61.69677734 12.09692383 61.69677734 11.70703125 58.8359375 C11.55169922 57.79566406 11.39636719 56.75539063 11.23632812 55.68359375 C11.09646484 54.59175781 10.95660156 53.49992187 10.8125 52.375 C10.50940484 50.23656692 10.20347049 48.09853411 9.89453125 45.9609375 C9.74701416 44.92590088 9.59949707 43.89086426 9.44750977 42.82446289 C8.98220454 39.88768375 8.34387783 37.0715009 7.57348633 34.203125 C6.2049148 28.94557309 5.11013952 23.61648266 3.9375 18.3125 C3.66873047 17.10271484 3.39996094 15.89292969 3.12304688 14.64648438 C2.04237525 9.77133481 0.96304813 4.89996631 0 0 Z " fill="#F8F3F0" transform="translate(92,353)"/>
<path d="M0 0 C0.66 0.33 1.32 0.66 2 1 C-6.05386841 11.780006 -14.19185998 22.48688984 -22.421875 33.1328125 C-23.23974412 34.19258427 -24.05745177 35.25248067 -24.875 36.3125 C-25.2767041 36.83255615 -25.6784082 37.3526123 -26.09228516 37.88842773 C-28.50071155 41.0169235 -30.8749251 44.16840135 -33.2265625 47.33984375 C-34.04278076 48.43848755 -34.04278076 48.43848755 -34.87548828 49.55932617 C-35.94253639 50.99825353 -37.00612823 52.43975161 -38.06591797 53.8840332 C-41.77905206 58.88952603 -41.77905206 58.88952603 -44 60 C-42.72004948 55.40960154 -41.02426484 52.42586356 -37.9375 48.8125 C-34.88218541 45.24449453 -34.88218541 45.24449453 -33 41 C-31.68911609 39.64458902 -30.35318986 38.31317659 -29 37 C-27.89982687 35.62127064 -26.82866104 34.21897672 -25.78515625 32.796875 C-25.18719238 31.98839111 -24.58922852 31.17990723 -23.97314453 30.34692383 C-23.34263184 29.48993896 -22.71211914 28.6329541 -22.0625 27.75 C-5.69202288 5.69202288 -5.69202288 5.69202288 0 0 Z " fill="#E7C0A3" transform="translate(166,309)"/>
<path d="M0 0 C0.94875 0.04125 1.8975 0.0825 2.875 0.125 C2.545 0.785 2.215 1.445 1.875 2.125 C1.02119751 2.32609375 1.02119751 2.32609375 0.15014648 2.53125 C-2.8855794 3.32349009 -4.944973 4.84712603 -7.52734375 6.625 C-9.10104736 7.70225342 -9.10104736 7.70225342 -10.70654297 8.80126953 C-11.82526869 9.57574036 -12.9439197 10.35031914 -14.0625 11.125 C-15.20422839 11.90921789 -16.34631915 12.69290849 -17.48876953 13.47607422 C-24.16339698 18.05698926 -30.8079612 22.68120052 -37.453125 27.3046875 C-40.87682852 29.63721066 -44.37915952 31.83008059 -47.890625 34.02734375 C-50.57980274 35.77141192 -53.22302037 37.55696361 -55.859375 39.37890625 C-57.1275708 40.25530762 -57.1275708 40.25530762 -58.42138672 41.14941406 C-60.11353735 42.32280085 -61.80277441 43.50040283 -63.48876953 44.68261719 C-64.27364746 45.22692383 -65.05852539 45.77123047 -65.8671875 46.33203125 C-66.5669873 46.8216333 -67.26678711 47.31123535 -67.98779297 47.81567383 C-70.28958189 49.2258285 -72.5968136 50.1908144 -75.125 51.125 C-71.4741093 47.06629704 -67.12856436 44.26437967 -62.625 41.25 C-60.89512161 40.08047912 -59.16597706 38.90987221 -57.4375 37.73828125 C-56.10912109 36.83843506 -56.10912109 36.83843506 -54.75390625 35.92041016 C-50.67922089 33.13760591 -46.65474314 30.28478935 -42.625 27.4375 C-33.16751676 20.76962036 -23.5433939 14.36077115 -13.88476562 7.98950195 C-13.31766876 7.61426895 -12.7505719 7.23903595 -12.16629028 6.85243225 C-10.61647989 5.82717594 -9.06488767 4.80461455 -7.51318359 3.78222656 C-2.18889525 0.08755581 -2.18889525 0.08755581 0 0 Z " fill="#F9F5F1" transform="translate(105.125,72.875)"/>
<path d="M0 0 C2.72128714 1.54236558 5.1549668 3.39967156 7.625 5.3125 C8.29273438 5.81201172 8.96046875 6.31152344 9.6484375 6.82617188 C12.62509262 9.07354649 15.40313389 11.31499604 18 14 C13.5626639 13.47136429 11.11474235 11.85479846 7.625 9.125 C3.50684436 6.015486 -0.15045078 3.72428417 -5 2 C-5 2.66 -5 3.32 -5 4 C-7.26249724 5.5473755 -9.52379817 6.97303265 -11.875 8.375 C-16.6463518 11.26911645 -21.35981533 14.20923883 -25.96484375 17.36328125 C-27.17841553 18.19303467 -27.17841553 18.19303467 -28.41650391 19.03955078 C-29.99849583 20.12763367 -31.57514176 21.2235355 -33.14599609 22.32763672 C-33.8673877 22.82150879 -34.5887793 23.31538086 -35.33203125 23.82421875 C-35.96858643 24.26854248 -36.6051416 24.71286621 -37.26098633 25.1706543 C-39 26 -39 26 -42 25 C-39.71347281 23.47564854 -37.42694001 21.95130549 -35.14038086 20.42700195 C-33.20880289 19.13922892 -31.27732549 17.85130501 -29.34594727 16.56323242 C-21.10540126 11.06791014 -21.10540126 11.06791014 -17.07421875 8.39453125 C-16.03910156 7.70746094 -15.00398438 7.02039063 -13.9375 6.3125 C-13.05964844 5.73113281 -12.18179688 5.14976563 -11.27734375 4.55078125 C-8.98716864 3.05206525 -8.98716864 3.05206525 -7.00390625 1.29296875 C-4.29704546 -0.45356326 -3.18554345 -0.60698751 0 0 Z " fill="#F6EDE6" transform="translate(265,73)"/>
<path d="M0 0 C4.47861019 1.53237891 8.1059652 3.97754404 11.9375 6.6875 C13.35237119 7.67518634 14.76776656 8.66212206 16.18359375 9.6484375 C16.94913574 10.18307617 17.71467773 10.71771484 18.50341797 11.26855469 C24.06446502 15.1252871 29.67917926 18.90466867 35.28491211 22.69604492 C40.63217986 26.3291517 45.87135587 30.0637475 51 34 C50.01 34.495 50.01 34.495 49 35 C48.27224365 34.5145874 47.5444873 34.0291748 46.79467773 33.52905273 C41.54386041 30.02752668 36.29167101 26.52812737 31.03515625 23.03515625 C25.01627262 19.03412416 19.0065581 15.01950548 13 11 C12.22124512 10.48066895 11.44249023 9.96133789 10.64013672 9.42626953 C8.75504206 8.16644436 6.87614909 6.89809149 5 5.625 C4.01 4.95726563 3.02 4.28953125 2 3.6015625 C1.34 3.07304688 0.68 2.54453125 0 2 C0 1.34 0 0.68 0 0 Z " fill="#F8F1EB" transform="translate(283,87)"/>
<path d="M0 0 C0.33 0 0.66 0 1 0 C1.7164787 5.03478731 2.42842471 10.07018726 3.13623047 15.10620117 C3.37750658 16.81829 3.62000699 18.53020677 3.86376953 20.24194336 C4.21450869 22.70642278 4.56079899 25.17149322 4.90625 27.63671875 C5.0156189 28.39836838 5.12498779 29.16001801 5.2376709 29.94474792 C5.75352035 33.65691787 6.12962772 37.25051828 6 41 C5.5359375 40.0409375 5.5359375 40.0409375 5.0625 39.0625 C4.1654837 37.06389179 4.1654837 37.06389179 3 36 C2.48082567 33.48126282 2.00616194 30.96964691 1.5625 28.4375 C0.76711135 23.99314319 -0.03141725 19.60208126 -1.25 15.25 C-2.00859348 11.96276158 -1.86917397 11.08002587 -1 8 C-0.79104637 6.58633842 -0.60309594 5.16939377 -0.4375 3.75 C-0.293125 2.5125 -0.14875 1.275 0 0 Z " fill="#EDC5A6" transform="translate(100,360)"/>
<path d="M0 0 C-1.12511555 3.37534666 -2.10984184 3.91757161 -5.01171875 5.73730469 C-7.45489518 7.28888972 -9.81559557 8.94309571 -12.1875 10.6015625 C-13.13367188 11.25640625 -14.07984375 11.91125 -15.0546875 12.5859375 C-17.02189251 13.94784866 -18.9854346 15.31506561 -20.9453125 16.6875 C-21.89148438 17.33976562 -22.83765625 17.99203125 -23.8125 18.6640625 C-24.66457031 19.25654785 -25.51664063 19.8490332 -26.39453125 20.45947266 C-29.18949676 22.11204316 -31.89385001 23.08119177 -35 24 C-31.45636042 20.25528525 -27.74193125 17.23327125 -23.45703125 14.35546875 C-22.84736008 13.94081863 -22.2376889 13.52616852 -21.60954285 13.09895325 C-20.33143344 12.23166655 -19.05148158 11.36708932 -17.76977539 10.50512695 C-15.80281303 9.18097878 -13.84351632 7.84602266 -11.88476562 6.50976562 C-10.63846041 5.666017 -9.39173056 4.82289519 -8.14453125 3.98046875 C-7.55807327 3.58055222 -6.9716153 3.18063568 -6.36738586 2.76860046 C-2.23038743 0 -2.23038743 0 0 0 Z " fill="#F7ECE3" transform="translate(223,99)"/>
<path d="M0 0 C1.56124242 3.12248484 0.60334992 6.21715673 0.125 9.5625 C-0.01228516 10.60954102 -0.01228516 10.60954102 -0.15234375 11.67773438 C-0.86707326 16.86707326 -0.86707326 16.86707326 -2 18 C-2.144375 19.093125 -2.28875 20.18625 -2.4375 21.3125 C-2.92538729 24.51087224 -3.49894062 26.24704494 -5 29 C-4.09636719 28.7834375 -3.19273437 28.566875 -2.26171875 28.34375 C-1.08222656 28.0653125 0.09726562 27.786875 1.3125 27.5 C2.48425781 27.2215625 3.65601563 26.943125 4.86328125 26.65625 C8 26 8 26 11 26 C11 26.66 11 27.32 11 28 C4.85221129 29.6277833 -0.64012196 30.20190089 -7 30 C-6.03041056 21.98092501 -4.79906012 14.57392738 -2 7 C-1.29577215 4.67561606 -0.64751875 2.34102933 0 0 Z " fill="#E6D4C7" transform="translate(278,333)"/>
<path d="M0 0 C0.66 0.33 1.32 0.66 2 1 C-6.24928146 7.07137382 -14.51674888 13.11724083 -22.8125 19.125 C-23.98594971 19.9771106 -23.98594971 19.9771106 -25.18310547 20.84643555 C-26.27776123 21.63787964 -26.27776123 21.63787964 -27.39453125 22.4453125 C-28.04268799 22.91469238 -28.69084473 23.38407227 -29.35864258 23.86767578 C-31 25 -31 25 -33 26 C-32.61704435 23.6736368 -32.35069339 22.33669303 -30.62402344 20.67895508 C-29.75052246 20.10504028 -29.75052246 20.10504028 -28.859375 19.51953125 C-28.20670654 19.08181396 -27.55403809 18.64409668 -26.8815918 18.19311523 C-26.1781665 17.73751221 -25.47474121 17.28190918 -24.75 16.8125 C-23.29274164 15.84148658 -21.83571386 14.87012704 -20.37890625 13.8984375 C-19.64559082 13.4147168 -18.91227539 12.93099609 -18.15673828 12.43261719 C-14.96763944 10.31425268 -11.82737362 8.12786638 -8.6875 5.9375 C-5.80419386 3.93691242 -2.92000366 1.94666911 0 0 Z " fill="#FAF3EE" transform="translate(77,114)"/>
<path d="M0 0 C1 3 1 3 -0.58203125 6.546875 C-1.31574997 7.95305825 -2.05969765 9.35394014 -2.8125 10.75 C-5.96958354 16.6475998 -5.96958354 16.6475998 -8.13671875 22.953125 C-8.42160156 23.95859375 -8.70648438 24.9640625 -9 26 C-9.66 26.33 -10.32 26.66 -11 27 C-11 25.35 -11 23.7 -11 22 C-11.66 22.33 -12.32 22.66 -13 23 C-9.94802006 14.76569767 -4.99546401 7.19346817 0 0 Z " fill="#E1B898" transform="translate(347,138)"/>
<path d="M0 0 C0.66 0 1.32 0 2 0 C5.44419134 9.41002278 5.44419134 9.41002278 5 14 C5.66 14 6.32 14 7 14 C7 16.31 7 18.62 7 21 C7.66 21 8.32 21 9 21 C10.5912689 25.873261 11.21192221 29.80790596 11 35 C10.67 35 10.34 35 10 35 C10 33.02 10 31.04 10 29 C9.34 29 8.68 29 8 29 C7.731875 27.989375 7.46375 26.97875 7.1875 25.9375 C6.47076114 23.40367669 5.65542349 21.23593905 4.5625 18.8125 C1.99179169 13.05463802 0 6.31597217 0 0 Z " fill="#F2E5DA" transform="translate(87,333)"/>
<path d="M0 0 C4.01975802 2.95212175 6.98892301 6.27098146 9.9375 10.25 C10.58501221 11.11008667 10.58501221 11.11008667 11.24560547 11.98754883 C12.1044899 13.12935422 12.9610039 14.2729472 13.81494141 15.41845703 C14.85665322 16.80869377 15.91711819 18.18483711 16.98046875 19.55859375 C17.52316406 20.26113281 18.06585938 20.96367187 18.625 21.6875 C19.09164062 22.28949219 19.55828125 22.89148438 20.0390625 23.51171875 C21 25 21 25 21 27 C17.71835749 25.90611916 17.24961864 25.36094828 15.29296875 22.68359375 C14.78830078 22.00103516 14.28363281 21.31847656 13.76367188 20.61523438 C12.9834668 19.53725586 12.9834668 19.53725586 12.1875 18.4375 C11.67896484 17.74591797 11.17042969 17.05433594 10.64648438 16.34179688 C9.61774083 14.94275781 8.59284128 13.54088417 7.57177734 12.13623047 C5.46217437 9.26903165 3.28253542 6.45674228 1.0949707 3.64868164 C0 2 0 2 0 0 Z " fill="#E8C1A3" transform="translate(203,313)"/>
<path d="M0 0 C0.66 0 1.32 0 2 0 C0.48833877 3.24894354 -1.36683478 6.07880348 -3.4375 9 C-4.03433594 9.845625 -4.63117188 10.69125 -5.24609375 11.5625 C-6.80502576 13.72903358 -8.38914833 15.87190238 -10 18 C-11.32 17.67 -12.64 17.34 -14 17 C-14 15.35 -14 13.7 -14 12 C-13.67 12.99 -13.34 13.98 -13 15 C-9.10439 13.70146333 -9.05690423 12.52612153 -7 9 C-5.83530471 7.37920025 -4.64580324 5.77605602 -3.4375 4.1875 C-2.83808594 3.39730469 -2.23867187 2.60710937 -1.62109375 1.79296875 C-1.08613281 1.20128906 -0.55117187 0.60960937 0 0 Z " fill="#F8EDE5" transform="translate(120,401)"/>
<path d="M0 0 C3.99599882 3.68428574 6.42122911 8.37325717 9.1875 13 C9.74630859 13.91523438 10.30511719 14.83046875 10.88085938 15.7734375 C11.40873047 16.65257812 11.93660156 17.53171875 12.48046875 18.4375 C12.96410889 19.24058594 13.44774902 20.04367188 13.94604492 20.87109375 C15 23 15 23 15 26 C14.34 26 13.68 26 13 26 C12.67 24.02 12.34 22.04 12 20 C11.34 20 10.68 20 10 20 C8.37668351 17.63204291 6.89132438 15.28147505 5.4375 12.8125 C5.02564453 12.13896484 4.61378906 11.46542969 4.18945312 10.77148438 C2.06526714 7.20799724 0.46503602 4.20164126 0 0 Z " fill="#F6EAE2" transform="translate(90,216)"/>
<path d="M0 0 C3.8386248 1.23384369 4.91701732 3.40456946 6.71875 6.85546875 C8.88840544 10.48699569 11.6765799 13.62920927 14.390625 16.86328125 C16 19 16 19 16 21 C12.51425906 19.83808635 11.95814619 18.95073598 9.86328125 16.03515625 C9.28642578 15.23529297 8.70957031 14.43542969 8.11523438 13.61132812 C7.52033203 12.77021484 6.92542969 11.92910156 6.3125 11.0625 C5.70599609 10.22525391 5.09949219 9.38800781 4.47460938 8.52539062 C0 2.26899079 0 2.26899079 0 0 Z " fill="#EAC5A8" transform="translate(230,348)"/>
<path d="M0 0 C0.99 0.495 0.99 0.495 2 1 C2 1.66 2 2.32 2 3 C2.66 3 3.32 3 4 3 C5.36907416 5.57637588 6.72028455 8.15968104 8.0625 10.75 C8.45244141 11.47960937 8.84238281 12.20921875 9.24414062 12.9609375 C9.79038086 14.02441406 9.79038086 14.02441406 10.34765625 15.109375 C10.85824585 16.08342285 10.85824585 16.08342285 11.37915039 17.07714844 C12.13558044 19.41991018 11.78821819 20.70456573 11 23 C9.16002803 19.54515902 7.32916118 16.0855752 5.5 12.625 C4.97535156 11.64015625 4.45070313 10.6553125 3.91015625 9.640625 C3.16572266 8.22910156 3.16572266 8.22910156 2.40625 6.7890625 C1.94541016 5.91975098 1.48457031 5.05043945 1.00976562 4.15478516 C0 2 0 2 0 0 Z " fill="#F8F3EE" transform="translate(46,204)"/>
<path d="M0 0 C0.66 0 1.32 0 2 0 C0.64069406 5.43722378 -1.39205952 10.05390598 -4 15 C-4.5775 16.155 -5.155 17.31 -5.75 18.5 C-6.36875 19.7375 -6.36875 19.7375 -7 21 C-7.33 21 -7.66 21 -8 21 C-7.4943565 15.46640844 -6.04383132 11.43969425 -3.4375 6.5625 C-3.10814453 5.92634766 -2.77878906 5.29019531 -2.43945312 4.63476562 C-1.63546752 3.08505424 -0.81902334 1.54181678 0 0 Z " fill="#F3E8DF" transform="translate(347,141)"/>
<path d="M0 0 C3.39187279 1.41573821 5.09697541 3.04230966 7.25 6 C7.77078125 6.70125 8.2915625 7.4025 8.828125 8.125 C10 10 10 10 10 12 C4.78119383 10.90769173 2.7333597 8.92827383 -0.21484375 4.75390625 C-1 3 -1 3 0 0 Z " fill="#EBCEB7" transform="translate(224,338)"/>
<path d="M0 0 C0.66 0 1.32 0 2 0 C0.4805627 4.8603687 -2.32918654 8.06079356 -5.625 11.8125 C-6.140625 12.40998047 -6.65625 13.00746094 -7.1875 13.62304688 C-8.45246272 15.08712409 -9.72543834 16.54427155 -11 18 C-11.33 17.01 -11.66 16.02 -12 15 C-10.4627223 12.85911036 -8.93365371 10.95644827 -7.1875 9 C-3.39878834 4.65524839 -3.39878834 4.65524839 0 0 Z " fill="#F9F0E8" transform="translate(134,383)"/>
<path d="M0 0 C0.33 0 0.66 0 1 0 C2.32719886 6.96779403 2.08825381 13.92988911 2 21 C1.34 20.67 0.68 20.34 0 20 C-2.32560724 12.53357676 -2.32560724 12.53357676 -1 8 C-0.79104637 6.58633842 -0.60309594 5.16939377 -0.4375 3.75 C-0.293125 2.5125 -0.14875 1.275 0 0 Z " fill="#E7BFA0" transform="translate(100,360)"/>
<path d="M0 0 C3.59634744 3.49359465 6.83451967 7.11098131 10 11 C10.99 10.67 11.98 10.34 13 10 C12.67 12.31 12.34 14.62 12 17 C7.51385653 12.78574401 3.36022588 8.17106807 0 3 C0 2.01 0 1.02 0 0 Z " fill="#F7EEE9" transform="translate(234,350)"/>
<path d="M0 0 C1.35811678 4.07435033 0.12032257 5.38896392 -1.75 9.1875 C-4.0985898 14.07038205 -6.1977016 18.89348787 -8 24 C-8.33 24 -8.66 24 -9 24 C-8.54772219 18.66312184 -7.94478453 15.53043774 -5 11 C-4.18706789 8.9736766 -3.45690367 6.93134738 -2.74609375 4.8671875 C-2 3 -2 3 0 0 Z " fill="#F6F0EA" transform="translate(338,162)"/>
<path d="M0 0 C2.99381354 2.80466193 5.1993621 5.61184269 7.3125 9.125 C8.11107422 10.42824219 8.11107422 10.42824219 8.92578125 11.7578125 C9.28027344 12.49773437 9.63476562 13.23765625 10 14 C9.67 14.66 9.34 15.32 9 16 C8.67 15.67 8.34 15.34 8 15 C7.34 15.66 6.68 16.32 6 17 C4.9932996 14.73192796 3.99448234 12.46092246 3 10.1875 C2.71382812 9.54490234 2.42765625 8.90230469 2.1328125 8.24023438 C0.86288959 5.32243531 0 3.21734286 0 0 Z " fill="#E5BC9D" transform="translate(18,135)"/>
<path d="M0 0 C0.33 0.99 0.66 1.98 1 3 C-0.80078125 5.62890625 -0.80078125 5.62890625 -3.3125 8.5625 C-4.54419922 10.01849609 -4.54419922 10.01849609 -5.80078125 11.50390625 C-7.15645275 13.04258137 -8.54993684 14.54993684 -10 16 C-11 15 -11 15 -11.0625 12.4375 C-11.041875 11.633125 -11.02125 10.82875 -11 10 C-10.01 10 -9.02 10 -8 10 C-5.8571648 7.77838385 -5.8571648 7.77838385 -3.8125 5 C-2.73935547 3.6078125 -2.73935547 3.6078125 -1.64453125 2.1875 C-1.10183594 1.465625 -0.55914062 0.74375 0 0 Z " fill="#F8F4F0" transform="translate(132,350)"/>
<path d="M0 0 C4.53332201 1.63903177 7.96686526 4.00667499 11.81640625 6.85546875 C13.93277388 8.23589775 13.93277388 8.23589775 16.27734375 7.67578125 C16.84582031 7.45277344 17.41429687 7.22976562 18 7 C18 7.66 18 8.32 18 9 C14.24885769 10.01382225 12.43175174 10.17858344 8.7890625 8.671875 C7.74492187 8.03765625 6.70078125 7.4034375 5.625 6.75 C4.56539062 6.12609375 3.50578125 5.5021875 2.4140625 4.859375 C1.61742187 4.24578125 0.82078125 3.6321875 0 3 C0 2.01 0 1.02 0 0 Z " fill="#F5EAE1" transform="translate(170,116)"/>
<path d="M0 0 C0.66 0 1.32 0 2 0 C2.66 5.94 3.32 11.88 4 18 C3.01 17.34 2.02 16.68 1 16 C0.61605333 13.22737745 0.39657752 10.65676472 0.3125 7.875 C0.27833984 7.12089844 0.24417969 6.36679687 0.20898438 5.58984375 C0.12645722 3.72708799 0.06155289 1.86356674 0 0 Z " fill="#F3E0D1" transform="translate(108,272)"/>
<path d="M0 0 C2.31138807 2.31138807 3.60400982 4.6414429 5.1875 7.5 C5.73792969 8.4796875 6.28835937 9.459375 6.85546875 10.46875 C7.42201172 11.72171875 7.42201172 11.72171875 8 13 C7.67 13.66 7.34 14.32 7 15 C4 14 4 14 2.83203125 12.36328125 C0.69283621 8.06030271 -0.4926146 4.92614603 0 0 Z " fill="#F1E4DB" transform="translate(58,223)"/>
<path d="M0 0 C0.66 0.33 1.32 0.66 2 1 C-2.455 6.94 -2.455 6.94 -7 13 C-7.99 12.67 -8.98 12.34 -10 12 C-8.52149287 10.18696196 -7.04217625 8.37458402 -5.5625 6.5625 C-4.32693359 5.04849609 -4.32693359 5.04849609 -3.06640625 3.50390625 C-1 1 -1 1 0 0 Z " fill="#E9C4A8" transform="translate(166,309)"/>
<path d="M0 0 C10 11.53846154 10 11.53846154 10 17 C9.34 17 8.68 17 8 17 C6.51925046 14.94241228 5.18523151 12.91211348 3.875 10.75 C3.31619141 9.87021484 3.31619141 9.87021484 2.74609375 8.97265625 C0.68518944 5.61330674 0 4.04528996 0 0 Z " fill="#F5E9DF" transform="translate(74,189)"/>
<path d="M0 0 C0.66 0 1.32 0 2 0 C2.103125 1.010625 2.20625 2.02125 2.3125 3.0625 C2.84393849 7.02860796 2.84393849 7.02860796 4.5625 10.5625 C6.01807093 14.04321309 6.27222761 16.27955605 6 20 C5.34 19.67 4.68 19.34 4 19 C3.40234375 16.96875 3.40234375 16.96875 2.9375 14.5 C2.54135157 11.46226779 2.54135157 11.46226779 1 9 C0.76807135 7.48530552 0.58784762 5.96245438 0.4375 4.4375 C0.35371094 3.61121094 0.26992187 2.78492188 0.18359375 1.93359375 C0.12300781 1.29550781 0.06242187 0.65742188 0 0 Z " fill="#F6F2EF" transform="translate(82,313)"/>
<path d="M0 0 C1.38012056 2.76024111 0.59705421 3.96959936 -0.3125 6.875 C-0.57675781 7.73867187 -0.84101563 8.60234375 -1.11328125 9.4921875 C-1.93475815 11.8154834 -2.69949152 13.9060405 -4 16 C-4.99 16.33 -5.98 16.66 -7 17 C-5.1668733 11.00067626 -2.92678249 5.55079437 0 0 Z " fill="#F0E4D9" transform="translate(322,196)"/>
<path d="M0 0 C4.08596252 1.52763464 5.79826179 4.11084191 8.25 7.625 C8.95640625 8.62789063 9.6628125 9.63078125 10.390625 10.6640625 C11.18726563 11.82035156 11.18726563 11.82035156 12 13 C11.01 13 10.02 13 9 13 C7.5 11.42578125 7.5 11.42578125 6 9.3125 C5.48179687 8.58675781 4.96359375 7.86101562 4.4296875 7.11328125 C2.85920074 4.79187868 1.37426547 2.44313861 0 0 Z " fill="#F4ECE6" transform="translate(213,324)"/>
<path d="M0 0 C0.66 0.33 1.32 0.66 2 1 C0.07158542 2.53376229 -1.86621794 4.0517182 -3.8125 5.5625 C-4.35970703 6.00013672 -4.90691406 6.43777344 -5.47070312 6.88867188 C-6.9221958 8.00588139 -8.45810571 9.01128867 -10 10 C-10.99 9.67 -11.98 9.34 -13 9 C-11.39612733 7.8745809 -9.79189084 6.74968028 -8.1875 5.625 C-7.29417969 4.99851562 -6.40085937 4.37203125 -5.48046875 3.7265625 C-3.66732122 2.46449761 -1.83811789 1.22541192 0 0 Z " fill="#F2E9E4" transform="translate(77,114)"/>
<path d="M0 0 C0 0.66 0 1.32 0 2 C-4.1196377 3.29243536 -7.66831683 4.26252625 -12 4 C-12.33 3.34 -12.66 2.68 -13 2 C-11.39658445 1.66307215 -9.79223445 1.33058907 -8.1875 1 C-7.29417969 0.814375 -6.40085937 0.62875 -5.48046875 0.4375 C-3 0 -3 0 0 0 Z " fill="#E1CDBE" transform="translate(313,354)"/>
<path d="M0 0 C4.41309542 3.15221101 7.00793014 6.55463907 10 11 C9.34 11.66 8.68 12.32 8 13 C6.66094733 11.2126038 5.32890934 9.41995047 4 7.625 C3.2575 6.62726563 2.515 5.62953125 1.75 4.6015625 C0 2 0 2 0 0 Z " fill="#EBC8AC" transform="translate(203,313)"/>
<path d="M0 0 C0.33 0.66 0.66 1.32 1 2 C-0.21484375 4.8203125 -0.21484375 4.8203125 -1.9375 8.125 C-2.50339844 9.22070312 -3.06929688 10.31640625 -3.65234375 11.4453125 C-4.09707031 12.28835937 -4.54179687 13.13140625 -5 14 C-5.9970971 11.37511186 -6.13116719 10.31725398 -5.0390625 7.67578125 C-4.57242187 6.89589844 -4.10578125 6.11601562 -3.625 5.3125 C-3.16351563 4.52488281 -2.70203125 3.73726562 -2.2265625 2.92578125 C-1 1 -1 1 0 0 Z " fill="#F8F3EF" transform="translate(316,212)"/>
<path d="M0 0 C0.66 0 1.32 0 2 0 C2.33 3.96 2.66 7.92 3 12 C2.34 12 1.68 12 1 12 C-0.3271261 8.0186217 -0.06915913 4.14954773 0 0 Z " fill="#F2DFD0" transform="translate(111,294)"/>
<path d="M0 0 C0.99 0.495 0.99 0.495 2 1 C2.4140625 3.50390625 2.4140625 3.50390625 2.625 6.5625 C2.69976562 7.57441406 2.77453125 8.58632812 2.8515625 9.62890625 C2.92503906 10.80259766 2.92503906 10.80259766 3 12 C2.34 12 1.68 12 1 12 C-0.3271261 8.0186217 -0.06915913 4.14954773 0 0 Z " fill="#F1DCCE" transform="translate(104,243)"/>
<path d="M0 0 C3.57983659 3.34118082 5.89716734 5.73768141 6.125 10.75 C6.08375 11.4925 6.0425 12.235 6 13 C2.84297684 9.09130466 0 5.1385061 0 0 Z " fill="#F8F3EF" transform="translate(25,156)"/>
<path d="M0 0 C0.66 0 1.32 0 2 0 C2.33 3.63 2.66 7.26 3 11 C0 8 0 8 -0.29296875 5.95703125 C-0.1953125 3.97135417 -0.09765625 1.98567708 0 0 Z " fill="#F1DED0" transform="translate(106,258)"/>
<path d="M0 0 C1.485 0.99 1.485 0.99 3 2 C3 2.66 3 3.32 3 4 C3.66 4 4.32 4 5 4 C5 4.66 5 5.32 5 6 C5.66 6 6.32 6 7 6 C7.33 6.99 7.66 7.98 8 9 C6.25 8.875 6.25 8.875 4 8 C0 2.77777778 0 2.77777778 0 0 Z " fill="#F0E5DA" transform="translate(186,322)"/>
<path d="M0 0 C2.61724095 2.36797991 4.32861729 4.89600354 6 8 C6 8.66 6 9.32 6 10 C5.34 10 4.68 10 4 10 C1.1605948 6.32547562 0 4.73113419 0 0 Z " fill="#F6EAE1" transform="translate(84,206)"/>
<path d="M0 0 C2.95183101 2.95183101 3.08663988 5.95511947 4 10 C3.01 9.67 2.02 9.34 1 9 C-0.4783226 6.04335481 -0.06032783 3.25770263 0 0 Z " fill="#F0E1D6" transform="translate(31,165)"/>
<path d="M0 0 C0.66 0 1.32 0 2 0 C1.41196203 3.02419525 0.77321882 6.01758453 0 9 C-0.66 9 -1.32 9 -2 9 C-1.34 6.03 -0.68 3.06 0 0 Z " fill="#F0E6DF" transform="translate(273,354)"/>
<path d="M0 0 C4.42857143 5.14285714 4.42857143 5.14285714 5 9 C4.34 9 3.68 9 3 9 C0.78252188 6.69723426 0.03239994 5.47519908 -0.1875 2.25 C-0.125625 1.5075 -0.06375 0.765 0 0 Z " fill="#F0E0D3" transform="translate(45,198)"/>
<path d="M0 0 C4.43090471 1.20842856 6.98112756 2.51668565 10 6 C5.16743695 5.58578031 3.17320782 3.53586014 0 0 Z " fill="#F7EFE8" transform="translate(298,121)"/>
<path d="M0 0 C2.475 0.495 2.475 0.495 5 1 C5.33 2.32 5.66 3.64 6 5 C4.68 4.67 3.36 4.34 2 4 C2.33 3.34 2.66 2.68 3 2 C2.01 1.67 1.02 1.34 0 1 C0 0.67 0 0.34 0 0 Z " fill="#F4E8E0" transform="translate(337,350)"/>
<path d="M0 0 C4.875 4.625 4.875 4.625 6 8 C2.57701423 6.85900474 1.85241234 5.99914379 0 3 C0 2.01 0 1.02 0 0 Z " fill="#F4ECE7" transform="translate(228,342)"/>
<path d="M0 0 C0.33 0.66 0.66 1.32 1 2 C0.06553465 4.03144641 -0.93224776 6.03533587 -2 8 C-2.33 8 -2.66 8 -3 8 C-2.74438677 5.6568787 -2.40729228 3.32156597 -2 1 C-1.34 0.67 -0.68 0.34 0 0 Z " fill="#F7EEE8" transform="translate(342,154)"/>
<path d="M0 0 C0.66 0.33 1.32 0.66 2 1 C0.02 1.99 0.02 1.99 -2 3 C-2 2.34 -2 1.68 -2 1 C-1.34 0.67 -0.68 0.34 0 0 Z " fill="#FFFFFF" transform="translate(301,393)"/>
<path d="" fill="#FFFFFF" transform="translate(0,0)"/>
</svg>
